G04 EAGLE Gerber X2 export*
%TF.Part,Single*%
%TF.FileFunction,Copper,L1,Top,Mixed*%
%TF.FilePolarity,Positive*%
%TF.GenerationSoftware,Autodesk,EAGLE,9.0.1*%
%TF.CreationDate,2018-06-20T09:19:30Z*%
G75*
%MOMM*%
%FSLAX34Y34*%
%LPD*%
%AMOC8*
5,1,8,0,0,1.08239X$1,22.5*%
G01*
%ADD10C,1.676400*%
%ADD11C,1.524000*%
%ADD12P,1.649562X8X22.500000*%
%ADD13P,1.429621X8X22.500000*%
%ADD14P,1.429621X8X292.500000*%
%ADD15C,3.009900*%
%ADD16P,1.429621X8X112.500000*%


D10*
X736600Y355600D03*
X635000Y355600D03*
X762000Y393700D03*
X660400Y393700D03*
X749300Y698500D03*
X647700Y698500D03*
X774700Y736600D03*
X673100Y736600D03*
D11*
X236220Y381000D02*
X220980Y381000D01*
X220980Y406400D02*
X236220Y406400D01*
X236220Y431800D02*
X220980Y431800D01*
X220980Y457200D02*
X236220Y457200D01*
X236220Y482600D02*
X220980Y482600D01*
X220980Y508000D02*
X236220Y508000D01*
X236220Y533400D02*
X220980Y533400D01*
X220980Y558800D02*
X236220Y558800D01*
X236220Y584200D02*
X220980Y584200D01*
X220980Y609600D02*
X236220Y609600D01*
X236220Y635000D02*
X220980Y635000D01*
X220980Y660400D02*
X236220Y660400D01*
X236220Y685800D02*
X220980Y685800D01*
X220980Y711200D02*
X236220Y711200D01*
X236220Y736600D02*
X220980Y736600D01*
X96520Y736600D02*
X81280Y736600D01*
X81280Y711200D02*
X96520Y711200D01*
X96520Y685800D02*
X81280Y685800D01*
X81280Y660400D02*
X96520Y660400D01*
X96520Y635000D02*
X81280Y635000D01*
X81280Y609600D02*
X96520Y609600D01*
X96520Y584200D02*
X81280Y584200D01*
X81280Y558800D02*
X96520Y558800D01*
X96520Y533400D02*
X81280Y533400D01*
X81280Y508000D02*
X96520Y508000D01*
X96520Y482600D02*
X81280Y482600D01*
X81280Y457200D02*
X96520Y457200D01*
X96520Y431800D02*
X81280Y431800D01*
X81280Y406400D02*
X96520Y406400D01*
X96520Y381000D02*
X81280Y381000D01*
D12*
X330200Y533400D03*
D11*
X584200Y236220D02*
X584200Y220980D01*
X635000Y220980D02*
X635000Y236220D01*
X685800Y236220D02*
X685800Y220980D01*
X736600Y220980D02*
X736600Y236220D01*
X812800Y236220D02*
X812800Y220980D01*
X863600Y220980D02*
X863600Y236220D01*
X914400Y236220D02*
X914400Y220980D01*
X914400Y297180D02*
X914400Y312420D01*
X863600Y312420D02*
X863600Y297180D01*
X812800Y297180D02*
X812800Y312420D01*
X736600Y312420D02*
X736600Y297180D01*
X685800Y297180D02*
X685800Y312420D01*
X635000Y312420D02*
X635000Y297180D01*
X584200Y297180D02*
X584200Y312420D01*
X762000Y236220D02*
X762000Y220980D01*
X762000Y297180D02*
X762000Y312420D01*
X596900Y576580D02*
X596900Y591820D01*
X647700Y591820D02*
X647700Y576580D01*
X698500Y576580D02*
X698500Y591820D01*
X749300Y591820D02*
X749300Y576580D01*
X825500Y576580D02*
X825500Y591820D01*
X876300Y591820D02*
X876300Y576580D01*
X927100Y576580D02*
X927100Y591820D01*
X927100Y652780D02*
X927100Y668020D01*
X876300Y668020D02*
X876300Y652780D01*
X825500Y652780D02*
X825500Y668020D01*
X749300Y668020D02*
X749300Y652780D01*
X698500Y652780D02*
X698500Y668020D01*
X647700Y668020D02*
X647700Y652780D01*
X596900Y652780D02*
X596900Y668020D01*
X774700Y591820D02*
X774700Y576580D01*
X774700Y652780D02*
X774700Y668020D01*
D13*
X431800Y520700D03*
X533400Y520700D03*
X-368300Y584200D03*
X-266700Y584200D03*
X584200Y444500D03*
X685800Y444500D03*
X762000Y495300D03*
X863600Y495300D03*
X419100Y711200D03*
X520700Y711200D03*
D14*
X279400Y635000D03*
X279400Y533400D03*
D15*
X129350Y10668D02*
X99251Y10668D01*
X99251Y50800D02*
X129350Y50800D01*
X129350Y90932D02*
X99251Y90932D01*
D16*
X520700Y635000D03*
X501650Y622300D03*
X520700Y609600D03*
X889000Y419100D03*
X869950Y406400D03*
X889000Y393700D03*
D13*
X-469900Y533400D03*
X-482600Y552450D03*
X-495300Y533400D03*
D16*
X736600Y457200D03*
X717550Y444500D03*
X736600Y431800D03*
M02*
