M48
;GenerationSoftware,Autodesk,EAGLE,9.0.1*%
;CreationDate,2018-06-20T09:19:30Z*%
FMAT,2
ICI,OFF
METRIC,TZ,000.000
T5C0.813
T4C1.016
T3C1.118
T2C2.007
%
G90
M71
T2
X11430Y1067
X11430Y5080
X11430Y9093
T3
X73660Y35560
X67310Y73660
X77470Y73660
X64770Y69850
X74930Y69850
X66040Y39370
X76200Y39370
X63500Y35560
T4
X68580Y22860
X76200Y30480
X76200Y22860
X58420Y30480
X63500Y30480
X68580Y30480
X59690Y58420
X81280Y30480
X86360Y30480
X91440Y30480
X91440Y22860
X86360Y22860
X81280Y22860
X73660Y22860
X73660Y30480
X64770Y58420
X69850Y58420
X74930Y58420
X82550Y58420
X87630Y58420
X92710Y58420
X92710Y66040
X87630Y66040
X82550Y66040
X74930Y66040
X69850Y66040
X64770Y66040
X59690Y66040
X77470Y58420
X77470Y66040
X22860Y55880
X8890Y73660
X22860Y73660
X22860Y71120
X22860Y68580
X22860Y66040
X22860Y63500
X22860Y60960
X22860Y58420
X58420Y22860
X22860Y53340
X22860Y50800
X22860Y48260
X22860Y45720
X22860Y43180
X22860Y40640
X22860Y38100
X8890Y68580
X63500Y22860
X33020Y53340
X8890Y38100
X8890Y71120
X8890Y40640
X8890Y43180
X8890Y45720
X8890Y48260
X8890Y53340
X8890Y55880
X8890Y58420
X8890Y60960
X8890Y50800
X8890Y66040
X8890Y63500
T5
X73660Y43180
X52070Y63500
X50165Y62230
X52070Y60960
X88900Y41910
X86995Y40640
X88900Y39370
X-46990Y53340
X-48260Y55245
X-49530Y53340
X73660Y45720
X71755Y44450
X27940Y53340
X27940Y63500
X52070Y71120
X41910Y71120
X86360Y49530
X76200Y49530
X68580Y44450
X58420Y44450
X-26670Y58420
X-36830Y58420
X53340Y52070
X43180Y52070
M30