G04 EAGLE Gerber X2 export*
%TF.Part,Single*%
%TF.FileFunction,Legend,Top,1*%
%TF.FilePolarity,Positive*%
%TF.GenerationSoftware,Autodesk,EAGLE,9.0.1*%
%TF.CreationDate,2018-06-20T09:19:30Z*%
G75*
%MOMM*%
%FSLAX34Y34*%
%LPD*%
%AMOC8*
5,1,8,0,0,1.08239X$1,22.5*%
G01*
%ADD10C,0.152400*%
%ADD11C,0.127000*%
%ADD12R,0.508000X2.540000*%
%ADD13R,1.905000X0.762000*%
%ADD14C,0.254000*%
%ADD15C,0.177800*%
%ADD16C,0.101600*%
%ADD17R,0.863600X0.609600*%
%ADD18R,0.609600X0.863600*%


D10*
X706120Y342900D02*
X665480Y342900D01*
X706120Y342900D02*
X706120Y368300D01*
X665480Y368300D01*
X665480Y342900D01*
X679450Y355600D02*
X685800Y355600D01*
X695960Y361950D02*
X695960Y349250D01*
X685800Y355600D01*
X701040Y355600D01*
X695960Y361950D02*
X685800Y355600D01*
X685800Y361950D01*
X685800Y355600D02*
X685800Y349250D01*
D11*
X666115Y372745D02*
X666115Y384175D01*
X669290Y384175D01*
X669401Y384173D01*
X669511Y384167D01*
X669622Y384158D01*
X669732Y384144D01*
X669841Y384127D01*
X669950Y384106D01*
X670058Y384081D01*
X670165Y384052D01*
X670271Y384020D01*
X670376Y383984D01*
X670479Y383944D01*
X670581Y383901D01*
X670682Y383854D01*
X670781Y383803D01*
X670878Y383750D01*
X670972Y383693D01*
X671065Y383632D01*
X671156Y383569D01*
X671245Y383502D01*
X671331Y383432D01*
X671414Y383359D01*
X671496Y383284D01*
X671574Y383206D01*
X671649Y383124D01*
X671722Y383041D01*
X671792Y382955D01*
X671859Y382866D01*
X671922Y382775D01*
X671983Y382682D01*
X672040Y382588D01*
X672093Y382491D01*
X672144Y382392D01*
X672191Y382291D01*
X672234Y382189D01*
X672274Y382086D01*
X672310Y381981D01*
X672342Y381875D01*
X672371Y381768D01*
X672396Y381660D01*
X672417Y381551D01*
X672434Y381442D01*
X672448Y381332D01*
X672457Y381221D01*
X672463Y381111D01*
X672465Y381000D01*
X672465Y375920D01*
X672463Y375809D01*
X672457Y375699D01*
X672448Y375588D01*
X672434Y375478D01*
X672417Y375369D01*
X672396Y375260D01*
X672371Y375152D01*
X672342Y375045D01*
X672310Y374939D01*
X672274Y374834D01*
X672234Y374731D01*
X672191Y374629D01*
X672144Y374528D01*
X672093Y374429D01*
X672040Y374332D01*
X671983Y374238D01*
X671922Y374145D01*
X671859Y374054D01*
X671792Y373965D01*
X671722Y373879D01*
X671649Y373796D01*
X671574Y373714D01*
X671496Y373636D01*
X671414Y373561D01*
X671331Y373488D01*
X671245Y373418D01*
X671156Y373351D01*
X671065Y373288D01*
X670972Y373227D01*
X670878Y373170D01*
X670781Y373117D01*
X670682Y373066D01*
X670581Y373019D01*
X670479Y372976D01*
X670376Y372936D01*
X670271Y372900D01*
X670165Y372868D01*
X670058Y372839D01*
X669950Y372814D01*
X669841Y372793D01*
X669732Y372776D01*
X669622Y372762D01*
X669511Y372753D01*
X669401Y372747D01*
X669290Y372745D01*
X666115Y372745D01*
X677926Y381635D02*
X681101Y384175D01*
X681101Y372745D01*
X677926Y372745D02*
X684276Y372745D01*
D12*
X671830Y355600D03*
D13*
X715645Y355600D03*
X655955Y355600D03*
D10*
X690880Y381000D02*
X731520Y381000D01*
X731520Y406400D01*
X690880Y406400D01*
X690880Y381000D01*
X704850Y393700D02*
X711200Y393700D01*
X721360Y400050D02*
X721360Y387350D01*
X711200Y393700D01*
X726440Y393700D01*
X721360Y400050D02*
X711200Y393700D01*
X711200Y400050D01*
X711200Y393700D02*
X711200Y387350D01*
D11*
X691515Y410845D02*
X691515Y422275D01*
X694690Y422275D01*
X694801Y422273D01*
X694911Y422267D01*
X695022Y422258D01*
X695132Y422244D01*
X695241Y422227D01*
X695350Y422206D01*
X695458Y422181D01*
X695565Y422152D01*
X695671Y422120D01*
X695776Y422084D01*
X695879Y422044D01*
X695981Y422001D01*
X696082Y421954D01*
X696181Y421903D01*
X696278Y421850D01*
X696372Y421793D01*
X696465Y421732D01*
X696556Y421669D01*
X696645Y421602D01*
X696731Y421532D01*
X696814Y421459D01*
X696896Y421384D01*
X696974Y421306D01*
X697049Y421224D01*
X697122Y421141D01*
X697192Y421055D01*
X697259Y420966D01*
X697322Y420875D01*
X697383Y420782D01*
X697440Y420688D01*
X697493Y420591D01*
X697544Y420492D01*
X697591Y420391D01*
X697634Y420289D01*
X697674Y420186D01*
X697710Y420081D01*
X697742Y419975D01*
X697771Y419868D01*
X697796Y419760D01*
X697817Y419651D01*
X697834Y419542D01*
X697848Y419432D01*
X697857Y419321D01*
X697863Y419211D01*
X697865Y419100D01*
X697865Y414020D01*
X697863Y413909D01*
X697857Y413799D01*
X697848Y413688D01*
X697834Y413578D01*
X697817Y413469D01*
X697796Y413360D01*
X697771Y413252D01*
X697742Y413145D01*
X697710Y413039D01*
X697674Y412934D01*
X697634Y412831D01*
X697591Y412729D01*
X697544Y412628D01*
X697493Y412529D01*
X697440Y412432D01*
X697383Y412338D01*
X697322Y412245D01*
X697259Y412154D01*
X697192Y412065D01*
X697122Y411979D01*
X697049Y411896D01*
X696974Y411814D01*
X696896Y411736D01*
X696814Y411661D01*
X696731Y411588D01*
X696645Y411518D01*
X696556Y411451D01*
X696465Y411388D01*
X696372Y411327D01*
X696278Y411270D01*
X696181Y411217D01*
X696082Y411166D01*
X695981Y411119D01*
X695879Y411076D01*
X695776Y411036D01*
X695671Y411000D01*
X695565Y410968D01*
X695458Y410939D01*
X695350Y410914D01*
X695241Y410893D01*
X695132Y410876D01*
X695022Y410862D01*
X694911Y410853D01*
X694801Y410847D01*
X694690Y410845D01*
X691515Y410845D01*
X706819Y422276D02*
X706923Y422274D01*
X707028Y422268D01*
X707132Y422259D01*
X707235Y422246D01*
X707338Y422228D01*
X707440Y422208D01*
X707542Y422183D01*
X707642Y422155D01*
X707742Y422123D01*
X707840Y422087D01*
X707937Y422048D01*
X708032Y422006D01*
X708126Y421960D01*
X708218Y421910D01*
X708308Y421858D01*
X708396Y421802D01*
X708482Y421742D01*
X708566Y421680D01*
X708647Y421615D01*
X708726Y421547D01*
X708803Y421475D01*
X708876Y421402D01*
X708948Y421325D01*
X709016Y421246D01*
X709081Y421165D01*
X709143Y421081D01*
X709203Y420995D01*
X709259Y420907D01*
X709311Y420817D01*
X709361Y420725D01*
X709407Y420631D01*
X709449Y420536D01*
X709488Y420439D01*
X709524Y420341D01*
X709556Y420241D01*
X709584Y420141D01*
X709609Y420039D01*
X709629Y419937D01*
X709647Y419834D01*
X709660Y419731D01*
X709669Y419627D01*
X709675Y419522D01*
X709677Y419418D01*
X706819Y422275D02*
X706701Y422273D01*
X706582Y422267D01*
X706464Y422258D01*
X706347Y422245D01*
X706230Y422227D01*
X706113Y422207D01*
X705997Y422182D01*
X705882Y422154D01*
X705769Y422121D01*
X705656Y422086D01*
X705544Y422046D01*
X705434Y422004D01*
X705325Y421957D01*
X705217Y421907D01*
X705112Y421854D01*
X705008Y421797D01*
X704906Y421737D01*
X704806Y421674D01*
X704708Y421607D01*
X704612Y421538D01*
X704519Y421465D01*
X704428Y421389D01*
X704339Y421311D01*
X704253Y421229D01*
X704170Y421145D01*
X704089Y421059D01*
X704012Y420969D01*
X703937Y420878D01*
X703865Y420784D01*
X703796Y420687D01*
X703731Y420589D01*
X703668Y420488D01*
X703609Y420385D01*
X703553Y420281D01*
X703501Y420175D01*
X703452Y420067D01*
X703407Y419958D01*
X703365Y419847D01*
X703327Y419735D01*
X708724Y417196D02*
X708800Y417271D01*
X708875Y417350D01*
X708946Y417431D01*
X709015Y417515D01*
X709080Y417601D01*
X709142Y417689D01*
X709202Y417779D01*
X709258Y417871D01*
X709311Y417966D01*
X709360Y418062D01*
X709406Y418160D01*
X709449Y418259D01*
X709488Y418360D01*
X709523Y418462D01*
X709555Y418565D01*
X709583Y418669D01*
X709608Y418774D01*
X709629Y418881D01*
X709646Y418987D01*
X709659Y419094D01*
X709668Y419202D01*
X709674Y419310D01*
X709676Y419418D01*
X708724Y417195D02*
X703326Y410845D01*
X709676Y410845D01*
D12*
X697230Y393700D03*
D13*
X741045Y393700D03*
X681355Y393700D03*
D10*
X678180Y685800D02*
X718820Y685800D01*
X718820Y711200D01*
X678180Y711200D01*
X678180Y685800D01*
X692150Y698500D02*
X698500Y698500D01*
X708660Y704850D02*
X708660Y692150D01*
X698500Y698500D01*
X713740Y698500D01*
X708660Y704850D02*
X698500Y698500D01*
X698500Y704850D01*
X698500Y698500D02*
X698500Y692150D01*
D11*
X678815Y715645D02*
X678815Y727075D01*
X681990Y727075D01*
X682101Y727073D01*
X682211Y727067D01*
X682322Y727058D01*
X682432Y727044D01*
X682541Y727027D01*
X682650Y727006D01*
X682758Y726981D01*
X682865Y726952D01*
X682971Y726920D01*
X683076Y726884D01*
X683179Y726844D01*
X683281Y726801D01*
X683382Y726754D01*
X683481Y726703D01*
X683578Y726650D01*
X683672Y726593D01*
X683765Y726532D01*
X683856Y726469D01*
X683945Y726402D01*
X684031Y726332D01*
X684114Y726259D01*
X684196Y726184D01*
X684274Y726106D01*
X684349Y726024D01*
X684422Y725941D01*
X684492Y725855D01*
X684559Y725766D01*
X684622Y725675D01*
X684683Y725582D01*
X684740Y725488D01*
X684793Y725391D01*
X684844Y725292D01*
X684891Y725191D01*
X684934Y725089D01*
X684974Y724986D01*
X685010Y724881D01*
X685042Y724775D01*
X685071Y724668D01*
X685096Y724560D01*
X685117Y724451D01*
X685134Y724342D01*
X685148Y724232D01*
X685157Y724121D01*
X685163Y724011D01*
X685165Y723900D01*
X685165Y718820D01*
X685163Y718709D01*
X685157Y718599D01*
X685148Y718488D01*
X685134Y718378D01*
X685117Y718269D01*
X685096Y718160D01*
X685071Y718052D01*
X685042Y717945D01*
X685010Y717839D01*
X684974Y717734D01*
X684934Y717631D01*
X684891Y717529D01*
X684844Y717428D01*
X684793Y717329D01*
X684740Y717233D01*
X684683Y717138D01*
X684622Y717045D01*
X684559Y716954D01*
X684492Y716865D01*
X684422Y716779D01*
X684349Y716696D01*
X684274Y716614D01*
X684196Y716536D01*
X684114Y716461D01*
X684031Y716388D01*
X683945Y716318D01*
X683856Y716251D01*
X683765Y716188D01*
X683672Y716127D01*
X683578Y716070D01*
X683481Y716017D01*
X683382Y715966D01*
X683281Y715919D01*
X683179Y715876D01*
X683076Y715836D01*
X682971Y715800D01*
X682865Y715768D01*
X682758Y715739D01*
X682650Y715714D01*
X682541Y715693D01*
X682432Y715676D01*
X682322Y715662D01*
X682211Y715653D01*
X682101Y715647D01*
X681990Y715645D01*
X678815Y715645D01*
X690626Y715645D02*
X693801Y715645D01*
X693912Y715647D01*
X694022Y715653D01*
X694133Y715662D01*
X694243Y715676D01*
X694352Y715693D01*
X694461Y715714D01*
X694569Y715739D01*
X694676Y715768D01*
X694782Y715800D01*
X694887Y715836D01*
X694990Y715876D01*
X695092Y715919D01*
X695193Y715966D01*
X695292Y716017D01*
X695389Y716070D01*
X695483Y716127D01*
X695576Y716188D01*
X695667Y716251D01*
X695756Y716318D01*
X695842Y716388D01*
X695925Y716461D01*
X696007Y716536D01*
X696085Y716614D01*
X696160Y716696D01*
X696233Y716779D01*
X696303Y716865D01*
X696370Y716954D01*
X696433Y717045D01*
X696494Y717138D01*
X696551Y717233D01*
X696604Y717329D01*
X696655Y717428D01*
X696702Y717529D01*
X696745Y717631D01*
X696785Y717734D01*
X696821Y717839D01*
X696853Y717945D01*
X696882Y718052D01*
X696907Y718160D01*
X696928Y718269D01*
X696945Y718378D01*
X696959Y718488D01*
X696968Y718599D01*
X696974Y718709D01*
X696976Y718820D01*
X696974Y718931D01*
X696968Y719041D01*
X696959Y719152D01*
X696945Y719262D01*
X696928Y719371D01*
X696907Y719480D01*
X696882Y719588D01*
X696853Y719695D01*
X696821Y719801D01*
X696785Y719906D01*
X696745Y720009D01*
X696702Y720111D01*
X696655Y720212D01*
X696604Y720311D01*
X696551Y720407D01*
X696494Y720502D01*
X696433Y720595D01*
X696370Y720686D01*
X696303Y720775D01*
X696233Y720861D01*
X696160Y720944D01*
X696085Y721026D01*
X696007Y721104D01*
X695925Y721179D01*
X695842Y721252D01*
X695756Y721322D01*
X695667Y721389D01*
X695576Y721452D01*
X695483Y721513D01*
X695389Y721570D01*
X695292Y721623D01*
X695193Y721674D01*
X695092Y721721D01*
X694990Y721764D01*
X694887Y721804D01*
X694782Y721840D01*
X694676Y721872D01*
X694569Y721901D01*
X694461Y721926D01*
X694352Y721947D01*
X694243Y721964D01*
X694133Y721978D01*
X694022Y721987D01*
X693912Y721993D01*
X693801Y721995D01*
X694436Y727075D02*
X690626Y727075D01*
X694436Y727075D02*
X694536Y727073D01*
X694635Y727067D01*
X694735Y727057D01*
X694833Y727044D01*
X694932Y727026D01*
X695029Y727005D01*
X695125Y726980D01*
X695221Y726951D01*
X695315Y726918D01*
X695408Y726882D01*
X695499Y726842D01*
X695589Y726798D01*
X695677Y726751D01*
X695763Y726701D01*
X695847Y726647D01*
X695929Y726590D01*
X696008Y726530D01*
X696086Y726466D01*
X696160Y726400D01*
X696232Y726331D01*
X696301Y726259D01*
X696367Y726185D01*
X696431Y726107D01*
X696491Y726028D01*
X696548Y725946D01*
X696602Y725862D01*
X696652Y725776D01*
X696699Y725688D01*
X696743Y725598D01*
X696783Y725507D01*
X696819Y725414D01*
X696852Y725320D01*
X696881Y725224D01*
X696906Y725128D01*
X696927Y725031D01*
X696945Y724932D01*
X696958Y724834D01*
X696968Y724734D01*
X696974Y724635D01*
X696976Y724535D01*
X696974Y724435D01*
X696968Y724336D01*
X696958Y724236D01*
X696945Y724138D01*
X696927Y724039D01*
X696906Y723942D01*
X696881Y723846D01*
X696852Y723750D01*
X696819Y723656D01*
X696783Y723563D01*
X696743Y723472D01*
X696699Y723382D01*
X696652Y723294D01*
X696602Y723208D01*
X696548Y723124D01*
X696491Y723042D01*
X696431Y722963D01*
X696367Y722885D01*
X696301Y722811D01*
X696232Y722739D01*
X696160Y722670D01*
X696086Y722604D01*
X696008Y722540D01*
X695929Y722480D01*
X695847Y722423D01*
X695763Y722369D01*
X695677Y722319D01*
X695589Y722272D01*
X695499Y722228D01*
X695408Y722188D01*
X695315Y722152D01*
X695221Y722119D01*
X695125Y722090D01*
X695029Y722065D01*
X694932Y722044D01*
X694833Y722026D01*
X694735Y722013D01*
X694635Y722003D01*
X694536Y721997D01*
X694436Y721995D01*
X691896Y721995D01*
D12*
X684530Y698500D03*
D13*
X728345Y698500D03*
X668655Y698500D03*
D10*
X703580Y723900D02*
X744220Y723900D01*
X744220Y749300D01*
X703580Y749300D01*
X703580Y723900D01*
X717550Y736600D02*
X723900Y736600D01*
X734060Y742950D02*
X734060Y730250D01*
X723900Y736600D01*
X739140Y736600D01*
X734060Y742950D02*
X723900Y736600D01*
X723900Y742950D01*
X723900Y736600D02*
X723900Y730250D01*
D11*
X704215Y753745D02*
X704215Y765175D01*
X707390Y765175D01*
X707501Y765173D01*
X707611Y765167D01*
X707722Y765158D01*
X707832Y765144D01*
X707941Y765127D01*
X708050Y765106D01*
X708158Y765081D01*
X708265Y765052D01*
X708371Y765020D01*
X708476Y764984D01*
X708579Y764944D01*
X708681Y764901D01*
X708782Y764854D01*
X708881Y764803D01*
X708978Y764750D01*
X709072Y764693D01*
X709165Y764632D01*
X709256Y764569D01*
X709345Y764502D01*
X709431Y764432D01*
X709514Y764359D01*
X709596Y764284D01*
X709674Y764206D01*
X709749Y764124D01*
X709822Y764041D01*
X709892Y763955D01*
X709959Y763866D01*
X710022Y763775D01*
X710083Y763682D01*
X710140Y763588D01*
X710193Y763491D01*
X710244Y763392D01*
X710291Y763291D01*
X710334Y763189D01*
X710374Y763086D01*
X710410Y762981D01*
X710442Y762875D01*
X710471Y762768D01*
X710496Y762660D01*
X710517Y762551D01*
X710534Y762442D01*
X710548Y762332D01*
X710557Y762221D01*
X710563Y762111D01*
X710565Y762000D01*
X710565Y756920D01*
X710563Y756809D01*
X710557Y756699D01*
X710548Y756588D01*
X710534Y756478D01*
X710517Y756369D01*
X710496Y756260D01*
X710471Y756152D01*
X710442Y756045D01*
X710410Y755939D01*
X710374Y755834D01*
X710334Y755731D01*
X710291Y755629D01*
X710244Y755528D01*
X710193Y755429D01*
X710140Y755333D01*
X710083Y755238D01*
X710022Y755145D01*
X709959Y755054D01*
X709892Y754965D01*
X709822Y754879D01*
X709749Y754796D01*
X709674Y754714D01*
X709596Y754636D01*
X709514Y754561D01*
X709431Y754488D01*
X709345Y754418D01*
X709256Y754351D01*
X709165Y754288D01*
X709072Y754227D01*
X708978Y754170D01*
X708881Y754117D01*
X708782Y754066D01*
X708681Y754019D01*
X708579Y753976D01*
X708476Y753936D01*
X708371Y753900D01*
X708265Y753868D01*
X708158Y753839D01*
X708050Y753814D01*
X707941Y753793D01*
X707832Y753776D01*
X707722Y753762D01*
X707611Y753753D01*
X707501Y753747D01*
X707390Y753745D01*
X704215Y753745D01*
X716026Y756285D02*
X718566Y765175D01*
X716026Y756285D02*
X722376Y756285D01*
X720471Y758825D02*
X720471Y753745D01*
D12*
X709930Y736600D03*
D13*
X753745Y736600D03*
X694055Y736600D03*
D10*
X215900Y692150D02*
X215900Y679450D01*
X215900Y692150D02*
X222250Y698500D01*
X234950Y698500D01*
X241300Y692150D01*
X222250Y698500D02*
X215900Y704850D01*
X215900Y717550D01*
X222250Y723900D01*
X234950Y723900D01*
X241300Y717550D01*
X241300Y704850D01*
X234950Y698500D01*
X215900Y654050D02*
X222250Y647700D01*
X215900Y654050D02*
X215900Y666750D01*
X222250Y673100D01*
X234950Y673100D01*
X241300Y666750D01*
X241300Y654050D01*
X234950Y647700D01*
X222250Y673100D02*
X215900Y679450D01*
X234950Y673100D02*
X241300Y679450D01*
X241300Y692150D01*
X215900Y615950D02*
X215900Y603250D01*
X215900Y615950D02*
X222250Y622300D01*
X234950Y622300D01*
X241300Y615950D01*
X222250Y622300D02*
X215900Y628650D01*
X215900Y641350D01*
X222250Y647700D01*
X234950Y647700D01*
X241300Y641350D01*
X241300Y628650D01*
X234950Y622300D01*
X215900Y577850D02*
X222250Y571500D01*
X215900Y577850D02*
X215900Y590550D01*
X222250Y596900D01*
X234950Y596900D01*
X241300Y590550D01*
X241300Y577850D01*
X234950Y571500D01*
X222250Y596900D02*
X215900Y603250D01*
X234950Y596900D02*
X241300Y603250D01*
X241300Y615950D01*
X215900Y539750D02*
X215900Y527050D01*
X215900Y539750D02*
X222250Y546100D01*
X234950Y546100D01*
X241300Y539750D01*
X222250Y546100D02*
X215900Y552450D01*
X215900Y565150D01*
X222250Y571500D01*
X234950Y571500D01*
X241300Y565150D01*
X241300Y552450D01*
X234950Y546100D01*
X215900Y501650D02*
X222250Y495300D01*
X215900Y501650D02*
X215900Y514350D01*
X222250Y520700D01*
X234950Y520700D01*
X241300Y514350D01*
X241300Y501650D01*
X234950Y495300D01*
X222250Y520700D02*
X215900Y527050D01*
X234950Y520700D02*
X241300Y527050D01*
X241300Y539750D01*
X215900Y463550D02*
X215900Y450850D01*
X215900Y463550D02*
X222250Y469900D01*
X234950Y469900D01*
X241300Y463550D01*
X222250Y469900D02*
X215900Y476250D01*
X215900Y488950D01*
X222250Y495300D01*
X234950Y495300D01*
X241300Y488950D01*
X241300Y476250D01*
X234950Y469900D01*
X215900Y425450D02*
X222250Y419100D01*
X215900Y425450D02*
X215900Y438150D01*
X222250Y444500D01*
X234950Y444500D01*
X241300Y438150D01*
X241300Y425450D01*
X234950Y419100D01*
X222250Y444500D02*
X215900Y450850D01*
X234950Y444500D02*
X241300Y450850D01*
X241300Y463550D01*
X215900Y387350D02*
X215900Y374650D01*
X215900Y387350D02*
X222250Y393700D01*
X234950Y393700D01*
X241300Y387350D01*
X222250Y393700D02*
X215900Y400050D01*
X215900Y412750D01*
X222250Y419100D01*
X234950Y419100D01*
X241300Y412750D01*
X241300Y400050D01*
X234950Y393700D01*
X234950Y368300D02*
X222250Y368300D01*
X215900Y374650D01*
X234950Y368300D02*
X241300Y374650D01*
X241300Y387350D01*
X222250Y723900D02*
X215900Y730250D01*
X215900Y742950D01*
X222250Y749300D01*
X234950Y749300D01*
X241300Y742950D01*
X241300Y730250D01*
X234950Y723900D01*
D11*
X207137Y371983D02*
X198247Y371983D01*
X207137Y371983D02*
X207237Y371981D01*
X207336Y371975D01*
X207436Y371965D01*
X207534Y371952D01*
X207633Y371934D01*
X207730Y371913D01*
X207826Y371888D01*
X207922Y371859D01*
X208016Y371826D01*
X208109Y371790D01*
X208200Y371750D01*
X208290Y371706D01*
X208378Y371659D01*
X208464Y371609D01*
X208548Y371555D01*
X208630Y371498D01*
X208709Y371438D01*
X208787Y371374D01*
X208861Y371308D01*
X208933Y371239D01*
X209002Y371167D01*
X209068Y371093D01*
X209132Y371015D01*
X209192Y370936D01*
X209249Y370854D01*
X209303Y370770D01*
X209353Y370684D01*
X209400Y370596D01*
X209444Y370506D01*
X209484Y370415D01*
X209520Y370322D01*
X209553Y370228D01*
X209582Y370132D01*
X209607Y370036D01*
X209628Y369939D01*
X209646Y369840D01*
X209659Y369742D01*
X209669Y369642D01*
X209675Y369543D01*
X209677Y369443D01*
X209677Y368173D01*
X209677Y377963D02*
X198247Y377963D01*
X198247Y381138D01*
X198249Y381249D01*
X198255Y381359D01*
X198264Y381470D01*
X198278Y381580D01*
X198295Y381689D01*
X198316Y381798D01*
X198341Y381906D01*
X198370Y382013D01*
X198402Y382119D01*
X198438Y382224D01*
X198478Y382327D01*
X198521Y382429D01*
X198568Y382530D01*
X198619Y382629D01*
X198672Y382726D01*
X198729Y382820D01*
X198790Y382913D01*
X198853Y383004D01*
X198920Y383093D01*
X198990Y383179D01*
X199063Y383262D01*
X199138Y383344D01*
X199216Y383422D01*
X199298Y383497D01*
X199381Y383570D01*
X199467Y383640D01*
X199556Y383707D01*
X199647Y383770D01*
X199740Y383831D01*
X199835Y383888D01*
X199931Y383941D01*
X200030Y383992D01*
X200131Y384039D01*
X200233Y384082D01*
X200336Y384122D01*
X200441Y384158D01*
X200547Y384190D01*
X200654Y384219D01*
X200762Y384244D01*
X200871Y384265D01*
X200980Y384282D01*
X201090Y384296D01*
X201201Y384305D01*
X201311Y384311D01*
X201422Y384313D01*
X201533Y384311D01*
X201643Y384305D01*
X201754Y384296D01*
X201864Y384282D01*
X201973Y384265D01*
X202082Y384244D01*
X202190Y384219D01*
X202297Y384190D01*
X202403Y384158D01*
X202508Y384122D01*
X202611Y384082D01*
X202713Y384039D01*
X202814Y383992D01*
X202913Y383941D01*
X203010Y383888D01*
X203104Y383831D01*
X203197Y383770D01*
X203288Y383707D01*
X203377Y383640D01*
X203463Y383570D01*
X203546Y383497D01*
X203628Y383422D01*
X203706Y383344D01*
X203781Y383262D01*
X203854Y383179D01*
X203924Y383093D01*
X203991Y383004D01*
X204054Y382913D01*
X204115Y382820D01*
X204172Y382726D01*
X204225Y382629D01*
X204276Y382530D01*
X204323Y382429D01*
X204366Y382327D01*
X204406Y382224D01*
X204442Y382119D01*
X204474Y382013D01*
X204503Y381906D01*
X204528Y381798D01*
X204549Y381689D01*
X204566Y381580D01*
X204580Y381470D01*
X204589Y381359D01*
X204595Y381249D01*
X204597Y381138D01*
X204597Y377963D01*
X200787Y388822D02*
X198247Y391997D01*
X209677Y391997D01*
X209677Y388822D02*
X209677Y395172D01*
D10*
X101600Y425450D02*
X101600Y438150D01*
X101600Y425450D02*
X95250Y419100D01*
X82550Y419100D01*
X76200Y425450D01*
X95250Y419100D02*
X101600Y412750D01*
X101600Y400050D01*
X95250Y393700D01*
X82550Y393700D01*
X76200Y400050D01*
X76200Y412750D01*
X82550Y419100D01*
X101600Y463550D02*
X95250Y469900D01*
X101600Y463550D02*
X101600Y450850D01*
X95250Y444500D01*
X82550Y444500D01*
X76200Y450850D01*
X76200Y463550D01*
X82550Y469900D01*
X95250Y444500D02*
X101600Y438150D01*
X82550Y444500D02*
X76200Y438150D01*
X76200Y425450D01*
X101600Y501650D02*
X101600Y514350D01*
X101600Y501650D02*
X95250Y495300D01*
X82550Y495300D01*
X76200Y501650D01*
X95250Y495300D02*
X101600Y488950D01*
X101600Y476250D01*
X95250Y469900D01*
X82550Y469900D01*
X76200Y476250D01*
X76200Y488950D01*
X82550Y495300D01*
X101600Y539750D02*
X95250Y546100D01*
X101600Y539750D02*
X101600Y527050D01*
X95250Y520700D01*
X82550Y520700D01*
X76200Y527050D01*
X76200Y539750D01*
X82550Y546100D01*
X95250Y520700D02*
X101600Y514350D01*
X82550Y520700D02*
X76200Y514350D01*
X76200Y501650D01*
X101600Y577850D02*
X101600Y590550D01*
X101600Y577850D02*
X95250Y571500D01*
X82550Y571500D01*
X76200Y577850D01*
X95250Y571500D02*
X101600Y565150D01*
X101600Y552450D01*
X95250Y546100D01*
X82550Y546100D01*
X76200Y552450D01*
X76200Y565150D01*
X82550Y571500D01*
X101600Y615950D02*
X95250Y622300D01*
X101600Y615950D02*
X101600Y603250D01*
X95250Y596900D01*
X82550Y596900D01*
X76200Y603250D01*
X76200Y615950D01*
X82550Y622300D01*
X95250Y596900D02*
X101600Y590550D01*
X82550Y596900D02*
X76200Y590550D01*
X76200Y577850D01*
X101600Y654050D02*
X101600Y666750D01*
X101600Y654050D02*
X95250Y647700D01*
X82550Y647700D01*
X76200Y654050D01*
X95250Y647700D02*
X101600Y641350D01*
X101600Y628650D01*
X95250Y622300D01*
X82550Y622300D01*
X76200Y628650D01*
X76200Y641350D01*
X82550Y647700D01*
X101600Y692150D02*
X95250Y698500D01*
X101600Y692150D02*
X101600Y679450D01*
X95250Y673100D01*
X82550Y673100D01*
X76200Y679450D01*
X76200Y692150D01*
X82550Y698500D01*
X95250Y673100D02*
X101600Y666750D01*
X82550Y673100D02*
X76200Y666750D01*
X76200Y654050D01*
X101600Y730250D02*
X101600Y742950D01*
X101600Y730250D02*
X95250Y723900D01*
X82550Y723900D01*
X76200Y730250D01*
X95250Y723900D02*
X101600Y717550D01*
X101600Y704850D01*
X95250Y698500D01*
X82550Y698500D01*
X76200Y704850D01*
X76200Y717550D01*
X82550Y723900D01*
X82550Y749300D02*
X95250Y749300D01*
X101600Y742950D01*
X82550Y749300D02*
X76200Y742950D01*
X76200Y730250D01*
X95250Y393700D02*
X101600Y387350D01*
X101600Y374650D01*
X95250Y368300D01*
X82550Y368300D01*
X76200Y374650D01*
X76200Y387350D01*
X82550Y393700D01*
D11*
X107823Y726238D02*
X116713Y726238D01*
X116813Y726236D01*
X116912Y726230D01*
X117012Y726220D01*
X117110Y726207D01*
X117209Y726189D01*
X117306Y726168D01*
X117402Y726143D01*
X117498Y726114D01*
X117592Y726081D01*
X117685Y726045D01*
X117776Y726005D01*
X117866Y725961D01*
X117954Y725914D01*
X118040Y725864D01*
X118124Y725810D01*
X118206Y725753D01*
X118285Y725693D01*
X118363Y725629D01*
X118437Y725563D01*
X118509Y725494D01*
X118578Y725422D01*
X118644Y725348D01*
X118708Y725270D01*
X118768Y725191D01*
X118825Y725109D01*
X118879Y725025D01*
X118929Y724939D01*
X118976Y724851D01*
X119020Y724761D01*
X119060Y724670D01*
X119096Y724577D01*
X119129Y724483D01*
X119158Y724387D01*
X119183Y724291D01*
X119204Y724194D01*
X119222Y724095D01*
X119235Y723997D01*
X119245Y723897D01*
X119251Y723798D01*
X119253Y723698D01*
X119253Y722428D01*
X119253Y732219D02*
X107823Y732219D01*
X107823Y735394D01*
X107825Y735505D01*
X107831Y735615D01*
X107840Y735726D01*
X107854Y735836D01*
X107871Y735945D01*
X107892Y736054D01*
X107917Y736162D01*
X107946Y736269D01*
X107978Y736375D01*
X108014Y736480D01*
X108054Y736583D01*
X108097Y736685D01*
X108144Y736786D01*
X108195Y736885D01*
X108248Y736982D01*
X108305Y737076D01*
X108366Y737169D01*
X108429Y737260D01*
X108496Y737349D01*
X108566Y737435D01*
X108639Y737518D01*
X108714Y737600D01*
X108792Y737678D01*
X108874Y737753D01*
X108957Y737826D01*
X109043Y737896D01*
X109132Y737963D01*
X109223Y738026D01*
X109316Y738087D01*
X109411Y738144D01*
X109507Y738197D01*
X109606Y738248D01*
X109707Y738295D01*
X109809Y738338D01*
X109912Y738378D01*
X110017Y738414D01*
X110123Y738446D01*
X110230Y738475D01*
X110338Y738500D01*
X110447Y738521D01*
X110556Y738538D01*
X110666Y738552D01*
X110777Y738561D01*
X110887Y738567D01*
X110998Y738569D01*
X111109Y738567D01*
X111219Y738561D01*
X111330Y738552D01*
X111440Y738538D01*
X111549Y738521D01*
X111658Y738500D01*
X111766Y738475D01*
X111873Y738446D01*
X111979Y738414D01*
X112084Y738378D01*
X112187Y738338D01*
X112289Y738295D01*
X112390Y738248D01*
X112489Y738197D01*
X112586Y738144D01*
X112680Y738087D01*
X112773Y738026D01*
X112864Y737963D01*
X112953Y737896D01*
X113039Y737826D01*
X113122Y737753D01*
X113204Y737678D01*
X113282Y737600D01*
X113357Y737518D01*
X113430Y737435D01*
X113500Y737349D01*
X113567Y737260D01*
X113630Y737169D01*
X113691Y737076D01*
X113748Y736982D01*
X113801Y736885D01*
X113852Y736786D01*
X113899Y736685D01*
X113942Y736583D01*
X113982Y736480D01*
X114018Y736375D01*
X114050Y736269D01*
X114079Y736162D01*
X114104Y736054D01*
X114125Y735945D01*
X114142Y735836D01*
X114156Y735726D01*
X114165Y735615D01*
X114171Y735505D01*
X114173Y735394D01*
X114173Y732219D01*
X107823Y746570D02*
X107825Y746674D01*
X107831Y746779D01*
X107840Y746883D01*
X107853Y746986D01*
X107871Y747089D01*
X107891Y747191D01*
X107916Y747293D01*
X107944Y747393D01*
X107976Y747493D01*
X108012Y747591D01*
X108051Y747688D01*
X108093Y747783D01*
X108139Y747877D01*
X108189Y747969D01*
X108241Y748059D01*
X108297Y748147D01*
X108357Y748233D01*
X108419Y748317D01*
X108484Y748398D01*
X108552Y748477D01*
X108624Y748554D01*
X108697Y748627D01*
X108774Y748699D01*
X108853Y748767D01*
X108934Y748832D01*
X109018Y748894D01*
X109104Y748954D01*
X109192Y749010D01*
X109282Y749062D01*
X109374Y749112D01*
X109468Y749158D01*
X109563Y749200D01*
X109660Y749239D01*
X109758Y749275D01*
X109858Y749307D01*
X109958Y749335D01*
X110060Y749360D01*
X110162Y749380D01*
X110265Y749398D01*
X110368Y749411D01*
X110472Y749420D01*
X110577Y749426D01*
X110681Y749428D01*
X107823Y746570D02*
X107825Y746452D01*
X107831Y746333D01*
X107840Y746215D01*
X107853Y746098D01*
X107871Y745981D01*
X107891Y745864D01*
X107916Y745748D01*
X107944Y745633D01*
X107977Y745520D01*
X108012Y745407D01*
X108052Y745295D01*
X108094Y745185D01*
X108141Y745076D01*
X108191Y744968D01*
X108244Y744863D01*
X108301Y744759D01*
X108361Y744657D01*
X108424Y744557D01*
X108491Y744459D01*
X108560Y744363D01*
X108633Y744270D01*
X108709Y744179D01*
X108787Y744090D01*
X108869Y744004D01*
X108953Y743921D01*
X109039Y743840D01*
X109129Y743763D01*
X109220Y743688D01*
X109314Y743616D01*
X109411Y743547D01*
X109509Y743482D01*
X109610Y743419D01*
X109713Y743360D01*
X109817Y743304D01*
X109923Y743252D01*
X110031Y743203D01*
X110140Y743158D01*
X110251Y743116D01*
X110363Y743078D01*
X112903Y748475D02*
X112828Y748551D01*
X112749Y748626D01*
X112668Y748697D01*
X112584Y748766D01*
X112498Y748831D01*
X112410Y748893D01*
X112320Y748953D01*
X112228Y749009D01*
X112133Y749062D01*
X112037Y749111D01*
X111939Y749157D01*
X111840Y749200D01*
X111739Y749239D01*
X111637Y749274D01*
X111534Y749306D01*
X111430Y749334D01*
X111325Y749359D01*
X111218Y749380D01*
X111112Y749397D01*
X111005Y749410D01*
X110897Y749419D01*
X110789Y749425D01*
X110681Y749427D01*
X112903Y748475D02*
X119253Y743077D01*
X119253Y749427D01*
D10*
X323850Y546100D02*
X336550Y546100D01*
X342900Y539750D01*
X342900Y527050D01*
X336550Y520700D01*
X317500Y527050D02*
X317500Y539750D01*
X323850Y546100D01*
X317500Y527050D02*
X323850Y520700D01*
X336550Y520700D01*
D11*
X321183Y554863D02*
X321183Y563753D01*
X321183Y554863D02*
X321181Y554763D01*
X321175Y554664D01*
X321165Y554564D01*
X321152Y554466D01*
X321134Y554367D01*
X321113Y554270D01*
X321088Y554174D01*
X321059Y554078D01*
X321026Y553984D01*
X320990Y553891D01*
X320950Y553800D01*
X320906Y553710D01*
X320859Y553622D01*
X320809Y553536D01*
X320755Y553452D01*
X320698Y553370D01*
X320638Y553291D01*
X320574Y553213D01*
X320508Y553139D01*
X320439Y553067D01*
X320367Y552998D01*
X320293Y552932D01*
X320215Y552868D01*
X320136Y552808D01*
X320054Y552751D01*
X319970Y552697D01*
X319884Y552647D01*
X319796Y552600D01*
X319706Y552556D01*
X319615Y552516D01*
X319522Y552480D01*
X319428Y552447D01*
X319332Y552418D01*
X319236Y552393D01*
X319139Y552372D01*
X319040Y552354D01*
X318942Y552341D01*
X318842Y552331D01*
X318743Y552325D01*
X318643Y552323D01*
X317373Y552323D01*
X327163Y552323D02*
X327163Y563753D01*
X330338Y563753D01*
X330449Y563751D01*
X330559Y563745D01*
X330670Y563736D01*
X330780Y563722D01*
X330889Y563705D01*
X330998Y563684D01*
X331106Y563659D01*
X331213Y563630D01*
X331319Y563598D01*
X331424Y563562D01*
X331527Y563522D01*
X331629Y563479D01*
X331730Y563432D01*
X331829Y563381D01*
X331926Y563328D01*
X332020Y563271D01*
X332113Y563210D01*
X332204Y563147D01*
X332293Y563080D01*
X332379Y563010D01*
X332462Y562937D01*
X332544Y562862D01*
X332622Y562784D01*
X332697Y562702D01*
X332770Y562619D01*
X332840Y562533D01*
X332907Y562444D01*
X332970Y562353D01*
X333031Y562260D01*
X333088Y562165D01*
X333141Y562069D01*
X333192Y561970D01*
X333239Y561869D01*
X333282Y561767D01*
X333322Y561664D01*
X333358Y561559D01*
X333390Y561453D01*
X333419Y561346D01*
X333444Y561238D01*
X333465Y561129D01*
X333482Y561020D01*
X333496Y560910D01*
X333505Y560799D01*
X333511Y560689D01*
X333513Y560578D01*
X333511Y560467D01*
X333505Y560357D01*
X333496Y560246D01*
X333482Y560136D01*
X333465Y560027D01*
X333444Y559918D01*
X333419Y559810D01*
X333390Y559703D01*
X333358Y559597D01*
X333322Y559492D01*
X333282Y559389D01*
X333239Y559287D01*
X333192Y559186D01*
X333141Y559087D01*
X333088Y558991D01*
X333031Y558896D01*
X332970Y558803D01*
X332907Y558712D01*
X332840Y558623D01*
X332770Y558537D01*
X332697Y558454D01*
X332622Y558372D01*
X332544Y558294D01*
X332462Y558219D01*
X332379Y558146D01*
X332293Y558076D01*
X332204Y558009D01*
X332113Y557946D01*
X332020Y557885D01*
X331926Y557828D01*
X331829Y557775D01*
X331730Y557724D01*
X331629Y557677D01*
X331527Y557634D01*
X331424Y557594D01*
X331319Y557558D01*
X331213Y557526D01*
X331106Y557497D01*
X330998Y557472D01*
X330889Y557451D01*
X330780Y557434D01*
X330670Y557420D01*
X330559Y557411D01*
X330449Y557405D01*
X330338Y557403D01*
X327163Y557403D01*
X338022Y552323D02*
X341197Y552323D01*
X341308Y552325D01*
X341418Y552331D01*
X341529Y552340D01*
X341639Y552354D01*
X341748Y552371D01*
X341857Y552392D01*
X341965Y552417D01*
X342072Y552446D01*
X342178Y552478D01*
X342283Y552514D01*
X342386Y552554D01*
X342488Y552597D01*
X342589Y552644D01*
X342688Y552695D01*
X342785Y552748D01*
X342879Y552805D01*
X342972Y552866D01*
X343063Y552929D01*
X343152Y552996D01*
X343238Y553066D01*
X343321Y553139D01*
X343403Y553214D01*
X343481Y553292D01*
X343556Y553374D01*
X343629Y553457D01*
X343699Y553543D01*
X343766Y553632D01*
X343829Y553723D01*
X343890Y553816D01*
X343947Y553911D01*
X344000Y554007D01*
X344051Y554106D01*
X344098Y554207D01*
X344141Y554309D01*
X344181Y554412D01*
X344217Y554517D01*
X344249Y554623D01*
X344278Y554730D01*
X344303Y554838D01*
X344324Y554947D01*
X344341Y555056D01*
X344355Y555166D01*
X344364Y555277D01*
X344370Y555387D01*
X344372Y555498D01*
X344370Y555609D01*
X344364Y555719D01*
X344355Y555830D01*
X344341Y555940D01*
X344324Y556049D01*
X344303Y556158D01*
X344278Y556266D01*
X344249Y556373D01*
X344217Y556479D01*
X344181Y556584D01*
X344141Y556687D01*
X344098Y556789D01*
X344051Y556890D01*
X344000Y556989D01*
X343947Y557085D01*
X343890Y557180D01*
X343829Y557273D01*
X343766Y557364D01*
X343699Y557453D01*
X343629Y557539D01*
X343556Y557622D01*
X343481Y557704D01*
X343403Y557782D01*
X343321Y557857D01*
X343238Y557930D01*
X343152Y558000D01*
X343063Y558067D01*
X342972Y558130D01*
X342879Y558191D01*
X342785Y558248D01*
X342688Y558301D01*
X342589Y558352D01*
X342488Y558399D01*
X342386Y558442D01*
X342283Y558482D01*
X342178Y558518D01*
X342072Y558550D01*
X341965Y558579D01*
X341857Y558604D01*
X341748Y558625D01*
X341639Y558642D01*
X341529Y558656D01*
X341418Y558665D01*
X341308Y558671D01*
X341197Y558673D01*
X341832Y563753D02*
X338022Y563753D01*
X341832Y563753D02*
X341932Y563751D01*
X342031Y563745D01*
X342131Y563735D01*
X342229Y563722D01*
X342328Y563704D01*
X342425Y563683D01*
X342521Y563658D01*
X342617Y563629D01*
X342711Y563596D01*
X342804Y563560D01*
X342895Y563520D01*
X342985Y563476D01*
X343073Y563429D01*
X343159Y563379D01*
X343243Y563325D01*
X343325Y563268D01*
X343404Y563208D01*
X343482Y563144D01*
X343556Y563078D01*
X343628Y563009D01*
X343697Y562937D01*
X343763Y562863D01*
X343827Y562785D01*
X343887Y562706D01*
X343944Y562624D01*
X343998Y562540D01*
X344048Y562454D01*
X344095Y562366D01*
X344139Y562276D01*
X344179Y562185D01*
X344215Y562092D01*
X344248Y561998D01*
X344277Y561902D01*
X344302Y561806D01*
X344323Y561709D01*
X344341Y561610D01*
X344354Y561512D01*
X344364Y561412D01*
X344370Y561313D01*
X344372Y561213D01*
X344370Y561113D01*
X344364Y561014D01*
X344354Y560914D01*
X344341Y560816D01*
X344323Y560717D01*
X344302Y560620D01*
X344277Y560524D01*
X344248Y560428D01*
X344215Y560334D01*
X344179Y560241D01*
X344139Y560150D01*
X344095Y560060D01*
X344048Y559972D01*
X343998Y559886D01*
X343944Y559802D01*
X343887Y559720D01*
X343827Y559641D01*
X343763Y559563D01*
X343697Y559489D01*
X343628Y559417D01*
X343556Y559348D01*
X343482Y559282D01*
X343404Y559218D01*
X343325Y559158D01*
X343243Y559101D01*
X343159Y559047D01*
X343073Y558997D01*
X342985Y558950D01*
X342895Y558906D01*
X342804Y558866D01*
X342711Y558830D01*
X342617Y558797D01*
X342521Y558768D01*
X342425Y558743D01*
X342328Y558722D01*
X342229Y558704D01*
X342131Y558691D01*
X342031Y558681D01*
X341932Y558675D01*
X341832Y558673D01*
X339292Y558673D01*
D10*
X571500Y317500D02*
X927100Y317500D01*
X927100Y215900D01*
X571500Y279400D02*
X571500Y317500D01*
X571500Y279400D02*
X584200Y279400D01*
X584200Y254000D01*
X571500Y254000D02*
X571500Y215900D01*
X571500Y254000D02*
X584200Y254000D01*
X571500Y254000D02*
X571500Y279400D01*
X736600Y273050D02*
X736600Y290830D01*
D14*
X736600Y273050D02*
X726440Y273050D01*
X726440Y260350D01*
X746760Y260350D02*
X746760Y273050D01*
X736600Y273050D01*
X736600Y260350D02*
X726440Y260350D01*
D10*
X736600Y260350D02*
X736600Y242570D01*
D14*
X736600Y260350D02*
X746760Y260350D01*
D10*
X746760Y273050D02*
X726440Y260350D01*
X685800Y285750D02*
X685800Y290830D01*
X685800Y285750D02*
X609600Y285750D01*
X609600Y298450D01*
D14*
X615950Y307340D01*
D10*
X603250Y304800D02*
X598170Y304800D01*
X598170Y228600D02*
X603250Y228600D01*
X615950Y228600D02*
X621030Y228600D01*
X877570Y228600D02*
X882650Y228600D01*
X895350Y228600D02*
X900430Y228600D01*
X900430Y304800D02*
X895350Y304800D01*
X882650Y304800D02*
X877570Y304800D01*
X685800Y247650D02*
X685800Y242570D01*
X685800Y247650D02*
X609600Y247650D01*
X812800Y247650D02*
X812800Y242570D01*
X812800Y247650D02*
X889000Y247650D01*
X889000Y234950D01*
D14*
X882650Y226060D01*
D10*
X812800Y285750D02*
X812800Y290830D01*
X812800Y285750D02*
X889000Y285750D01*
X889000Y298450D01*
D14*
X882650Y307340D01*
D10*
X621030Y304800D02*
X615950Y304800D01*
X571500Y215900D02*
X927100Y215900D01*
X609600Y234950D02*
X609600Y247650D01*
D14*
X609600Y234950D02*
X615950Y226060D01*
D10*
X717550Y247650D02*
X717550Y255270D01*
X713740Y251460D02*
X721360Y251460D01*
X762000Y273050D02*
X762000Y290830D01*
D14*
X762000Y273050D02*
X751840Y273050D01*
X751840Y260350D01*
X772160Y260350D02*
X772160Y273050D01*
X762000Y273050D01*
X762000Y260350D02*
X751840Y260350D01*
D10*
X762000Y260350D02*
X762000Y242570D01*
D14*
X762000Y260350D02*
X772160Y260350D01*
D10*
X772160Y273050D02*
X751840Y260350D01*
X781050Y255270D02*
X781050Y247650D01*
X777240Y251460D02*
X784860Y251460D01*
D15*
X934339Y216789D02*
X950341Y216789D01*
X944118Y216789D02*
X934339Y225679D01*
X940562Y220345D02*
X950341Y225679D01*
X937895Y231667D02*
X934339Y236112D01*
X950341Y236112D01*
X950341Y231667D02*
X950341Y240557D01*
D16*
X720739Y262184D02*
X720737Y262085D01*
X720731Y261985D01*
X720722Y261886D01*
X720709Y261788D01*
X720692Y261690D01*
X720671Y261592D01*
X720646Y261496D01*
X720618Y261401D01*
X720586Y261307D01*
X720551Y261214D01*
X720512Y261122D01*
X720469Y261032D01*
X720424Y260944D01*
X720374Y260857D01*
X720322Y260773D01*
X720266Y260690D01*
X720208Y260610D01*
X720146Y260532D01*
X720081Y260457D01*
X720013Y260384D01*
X719943Y260314D01*
X719870Y260246D01*
X719795Y260181D01*
X719717Y260119D01*
X719637Y260061D01*
X719554Y260005D01*
X719470Y259953D01*
X719383Y259903D01*
X719295Y259858D01*
X719205Y259815D01*
X719113Y259776D01*
X719020Y259741D01*
X718926Y259709D01*
X718831Y259681D01*
X718735Y259656D01*
X718637Y259635D01*
X718539Y259618D01*
X718441Y259605D01*
X718342Y259596D01*
X718242Y259590D01*
X718143Y259588D01*
X717999Y259590D01*
X717854Y259596D01*
X717710Y259605D01*
X717567Y259618D01*
X717423Y259635D01*
X717280Y259656D01*
X717138Y259681D01*
X716997Y259709D01*
X716856Y259741D01*
X716716Y259777D01*
X716577Y259816D01*
X716439Y259859D01*
X716303Y259906D01*
X716167Y259956D01*
X716033Y260010D01*
X715901Y260067D01*
X715770Y260128D01*
X715641Y260192D01*
X715513Y260260D01*
X715387Y260330D01*
X715263Y260405D01*
X715142Y260482D01*
X715022Y260563D01*
X714904Y260646D01*
X714789Y260733D01*
X714676Y260823D01*
X714565Y260916D01*
X714457Y261011D01*
X714351Y261110D01*
X714248Y261211D01*
X714573Y268676D02*
X714575Y268775D01*
X714581Y268875D01*
X714590Y268974D01*
X714603Y269072D01*
X714620Y269170D01*
X714641Y269268D01*
X714666Y269364D01*
X714694Y269459D01*
X714726Y269553D01*
X714761Y269646D01*
X714800Y269738D01*
X714843Y269828D01*
X714888Y269916D01*
X714938Y270003D01*
X714990Y270087D01*
X715046Y270170D01*
X715104Y270250D01*
X715166Y270328D01*
X715231Y270403D01*
X715299Y270476D01*
X715369Y270546D01*
X715442Y270614D01*
X715517Y270679D01*
X715595Y270741D01*
X715675Y270799D01*
X715758Y270855D01*
X715842Y270907D01*
X715929Y270957D01*
X716017Y271002D01*
X716107Y271045D01*
X716199Y271084D01*
X716292Y271119D01*
X716386Y271151D01*
X716481Y271179D01*
X716578Y271204D01*
X716675Y271225D01*
X716773Y271242D01*
X716871Y271255D01*
X716970Y271264D01*
X717070Y271270D01*
X717169Y271272D01*
X717305Y271270D01*
X717441Y271264D01*
X717577Y271255D01*
X717713Y271242D01*
X717848Y271224D01*
X717982Y271204D01*
X718116Y271179D01*
X718250Y271151D01*
X718382Y271118D01*
X718513Y271083D01*
X718644Y271043D01*
X718773Y271000D01*
X718901Y270954D01*
X719027Y270903D01*
X719153Y270850D01*
X719276Y270792D01*
X719398Y270732D01*
X719518Y270668D01*
X719637Y270600D01*
X719753Y270530D01*
X719867Y270456D01*
X719980Y270379D01*
X720090Y270298D01*
X715871Y266404D02*
X715785Y266457D01*
X715701Y266514D01*
X715619Y266573D01*
X715539Y266636D01*
X715462Y266702D01*
X715387Y266770D01*
X715315Y266842D01*
X715246Y266916D01*
X715180Y266993D01*
X715117Y267072D01*
X715057Y267154D01*
X715000Y267238D01*
X714946Y267324D01*
X714896Y267412D01*
X714849Y267502D01*
X714805Y267593D01*
X714766Y267687D01*
X714729Y267781D01*
X714697Y267877D01*
X714668Y267975D01*
X714643Y268073D01*
X714622Y268172D01*
X714604Y268272D01*
X714591Y268372D01*
X714581Y268473D01*
X714575Y268575D01*
X714573Y268676D01*
X719441Y264456D02*
X719527Y264403D01*
X719611Y264346D01*
X719693Y264287D01*
X719773Y264224D01*
X719850Y264158D01*
X719925Y264090D01*
X719997Y264018D01*
X720066Y263944D01*
X720132Y263867D01*
X720195Y263788D01*
X720255Y263706D01*
X720312Y263622D01*
X720366Y263536D01*
X720416Y263448D01*
X720463Y263358D01*
X720507Y263267D01*
X720546Y263173D01*
X720583Y263079D01*
X720615Y262983D01*
X720644Y262885D01*
X720669Y262787D01*
X720690Y262688D01*
X720708Y262588D01*
X720721Y262488D01*
X720731Y262387D01*
X720737Y262285D01*
X720739Y262184D01*
X719441Y264456D02*
X715871Y266404D01*
X777748Y271272D02*
X777748Y259588D01*
X777748Y271272D02*
X780994Y271272D01*
X781107Y271270D01*
X781220Y271264D01*
X781333Y271254D01*
X781446Y271240D01*
X781558Y271223D01*
X781669Y271201D01*
X781779Y271176D01*
X781889Y271146D01*
X781997Y271113D01*
X782104Y271076D01*
X782210Y271036D01*
X782314Y270991D01*
X782417Y270943D01*
X782518Y270892D01*
X782617Y270837D01*
X782714Y270779D01*
X782809Y270717D01*
X782902Y270652D01*
X782992Y270584D01*
X783080Y270513D01*
X783166Y270438D01*
X783249Y270361D01*
X783329Y270281D01*
X783406Y270198D01*
X783481Y270112D01*
X783552Y270024D01*
X783620Y269934D01*
X783685Y269841D01*
X783747Y269746D01*
X783805Y269649D01*
X783860Y269550D01*
X783911Y269449D01*
X783959Y269346D01*
X784004Y269242D01*
X784044Y269136D01*
X784081Y269029D01*
X784114Y268921D01*
X784144Y268811D01*
X784169Y268701D01*
X784191Y268590D01*
X784208Y268478D01*
X784222Y268365D01*
X784232Y268252D01*
X784238Y268139D01*
X784240Y268026D01*
X784238Y267913D01*
X784232Y267800D01*
X784222Y267687D01*
X784208Y267574D01*
X784191Y267462D01*
X784169Y267351D01*
X784144Y267241D01*
X784114Y267131D01*
X784081Y267023D01*
X784044Y266916D01*
X784004Y266810D01*
X783959Y266706D01*
X783911Y266603D01*
X783860Y266502D01*
X783805Y266403D01*
X783747Y266306D01*
X783685Y266211D01*
X783620Y266118D01*
X783552Y266028D01*
X783481Y265940D01*
X783406Y265854D01*
X783329Y265771D01*
X783249Y265691D01*
X783166Y265614D01*
X783080Y265539D01*
X782992Y265468D01*
X782902Y265400D01*
X782809Y265335D01*
X782714Y265273D01*
X782617Y265215D01*
X782518Y265160D01*
X782417Y265109D01*
X782314Y265061D01*
X782210Y265016D01*
X782104Y264976D01*
X781997Y264939D01*
X781889Y264906D01*
X781779Y264876D01*
X781669Y264851D01*
X781558Y264829D01*
X781446Y264812D01*
X781333Y264798D01*
X781220Y264788D01*
X781107Y264782D01*
X780994Y264780D01*
X780994Y264781D02*
X777748Y264781D01*
X781643Y264781D02*
X784239Y259588D01*
D10*
X939800Y673100D02*
X584200Y673100D01*
X939800Y673100D02*
X939800Y571500D01*
X584200Y635000D02*
X584200Y673100D01*
X584200Y635000D02*
X596900Y635000D01*
X596900Y609600D01*
X584200Y609600D02*
X584200Y571500D01*
X584200Y609600D02*
X596900Y609600D01*
X584200Y609600D02*
X584200Y635000D01*
X749300Y628650D02*
X749300Y646430D01*
D14*
X749300Y628650D02*
X739140Y628650D01*
X739140Y615950D01*
X759460Y615950D02*
X759460Y628650D01*
X749300Y628650D01*
X749300Y615950D02*
X739140Y615950D01*
D10*
X749300Y615950D02*
X749300Y598170D01*
D14*
X749300Y615950D02*
X759460Y615950D01*
D10*
X759460Y628650D02*
X739140Y615950D01*
X698500Y641350D02*
X698500Y646430D01*
X698500Y641350D02*
X622300Y641350D01*
X622300Y654050D01*
D14*
X628650Y662940D01*
D10*
X615950Y660400D02*
X610870Y660400D01*
X610870Y584200D02*
X615950Y584200D01*
X628650Y584200D02*
X633730Y584200D01*
X890270Y584200D02*
X895350Y584200D01*
X908050Y584200D02*
X913130Y584200D01*
X913130Y660400D02*
X908050Y660400D01*
X895350Y660400D02*
X890270Y660400D01*
X698500Y603250D02*
X698500Y598170D01*
X698500Y603250D02*
X622300Y603250D01*
X825500Y603250D02*
X825500Y598170D01*
X825500Y603250D02*
X901700Y603250D01*
X901700Y590550D01*
D14*
X895350Y581660D01*
D10*
X825500Y641350D02*
X825500Y646430D01*
X825500Y641350D02*
X901700Y641350D01*
X901700Y654050D01*
D14*
X895350Y662940D01*
D10*
X633730Y660400D02*
X628650Y660400D01*
X584200Y571500D02*
X939800Y571500D01*
X622300Y590550D02*
X622300Y603250D01*
D14*
X622300Y590550D02*
X628650Y581660D01*
D10*
X730250Y603250D02*
X730250Y610870D01*
X726440Y607060D02*
X734060Y607060D01*
X774700Y628650D02*
X774700Y646430D01*
D14*
X774700Y628650D02*
X764540Y628650D01*
X764540Y615950D01*
X784860Y615950D02*
X784860Y628650D01*
X774700Y628650D01*
X774700Y615950D02*
X764540Y615950D01*
D10*
X774700Y615950D02*
X774700Y598170D01*
D14*
X774700Y615950D02*
X784860Y615950D01*
D10*
X784860Y628650D02*
X764540Y615950D01*
X793750Y610870D02*
X793750Y603250D01*
X789940Y607060D02*
X797560Y607060D01*
D15*
X947039Y572389D02*
X963041Y572389D01*
X956818Y572389D02*
X947039Y581279D01*
X953262Y575945D02*
X963041Y581279D01*
X951040Y596157D02*
X950914Y596155D01*
X950789Y596149D01*
X950663Y596139D01*
X950539Y596125D01*
X950414Y596108D01*
X950290Y596086D01*
X950167Y596061D01*
X950045Y596031D01*
X949924Y595998D01*
X949804Y595961D01*
X949685Y595920D01*
X949567Y595876D01*
X949451Y595828D01*
X949336Y595776D01*
X949224Y595721D01*
X949113Y595662D01*
X949003Y595600D01*
X948896Y595534D01*
X948791Y595465D01*
X948688Y595393D01*
X948588Y595317D01*
X948490Y595239D01*
X948394Y595157D01*
X948301Y595073D01*
X948211Y594985D01*
X948123Y594895D01*
X948039Y594802D01*
X947957Y594706D01*
X947879Y594608D01*
X947803Y594508D01*
X947731Y594405D01*
X947662Y594300D01*
X947596Y594193D01*
X947534Y594083D01*
X947475Y593972D01*
X947420Y593860D01*
X947368Y593745D01*
X947320Y593629D01*
X947276Y593511D01*
X947235Y593392D01*
X947198Y593272D01*
X947165Y593151D01*
X947135Y593029D01*
X947110Y592906D01*
X947088Y592782D01*
X947071Y592657D01*
X947057Y592533D01*
X947047Y592407D01*
X947041Y592282D01*
X947039Y592156D01*
X947041Y592015D01*
X947047Y591875D01*
X947056Y591735D01*
X947070Y591595D01*
X947087Y591456D01*
X947108Y591317D01*
X947133Y591178D01*
X947161Y591041D01*
X947194Y590904D01*
X947230Y590768D01*
X947270Y590633D01*
X947313Y590500D01*
X947360Y590367D01*
X947411Y590236D01*
X947465Y590107D01*
X947523Y589979D01*
X947584Y589852D01*
X947649Y589727D01*
X947717Y589605D01*
X947788Y589484D01*
X947863Y589364D01*
X947941Y589248D01*
X948022Y589133D01*
X948106Y589020D01*
X948194Y588910D01*
X948284Y588802D01*
X948377Y588697D01*
X948473Y588595D01*
X948572Y588495D01*
X948673Y588397D01*
X948777Y588303D01*
X948884Y588211D01*
X948993Y588123D01*
X949104Y588037D01*
X949218Y587955D01*
X949334Y587875D01*
X949452Y587799D01*
X949572Y587726D01*
X949694Y587657D01*
X949818Y587590D01*
X949944Y587527D01*
X950071Y587468D01*
X950200Y587412D01*
X950330Y587360D01*
X950462Y587311D01*
X950595Y587266D01*
X954152Y594823D02*
X954061Y594915D01*
X953968Y595005D01*
X953873Y595091D01*
X953775Y595175D01*
X953674Y595255D01*
X953571Y595333D01*
X953466Y595407D01*
X953358Y595478D01*
X953249Y595546D01*
X953137Y595610D01*
X953024Y595672D01*
X952909Y595729D01*
X952792Y595784D01*
X952673Y595835D01*
X952553Y595882D01*
X952432Y595925D01*
X952310Y595965D01*
X952186Y596001D01*
X952061Y596034D01*
X951936Y596063D01*
X951809Y596088D01*
X951682Y596109D01*
X951554Y596126D01*
X951426Y596140D01*
X951298Y596149D01*
X951169Y596155D01*
X951040Y596157D01*
X954151Y594823D02*
X963041Y587267D01*
X963041Y596157D01*
D16*
X733439Y617784D02*
X733437Y617685D01*
X733431Y617585D01*
X733422Y617486D01*
X733409Y617388D01*
X733392Y617290D01*
X733371Y617192D01*
X733346Y617096D01*
X733318Y617001D01*
X733286Y616907D01*
X733251Y616814D01*
X733212Y616722D01*
X733169Y616632D01*
X733124Y616544D01*
X733074Y616457D01*
X733022Y616373D01*
X732966Y616290D01*
X732908Y616210D01*
X732846Y616132D01*
X732781Y616057D01*
X732713Y615984D01*
X732643Y615914D01*
X732570Y615846D01*
X732495Y615781D01*
X732417Y615719D01*
X732337Y615661D01*
X732254Y615605D01*
X732170Y615553D01*
X732083Y615503D01*
X731995Y615458D01*
X731905Y615415D01*
X731813Y615376D01*
X731720Y615341D01*
X731626Y615309D01*
X731531Y615281D01*
X731435Y615256D01*
X731337Y615235D01*
X731239Y615218D01*
X731141Y615205D01*
X731042Y615196D01*
X730942Y615190D01*
X730843Y615188D01*
X730699Y615190D01*
X730554Y615196D01*
X730410Y615205D01*
X730267Y615218D01*
X730123Y615235D01*
X729980Y615256D01*
X729838Y615281D01*
X729697Y615309D01*
X729556Y615341D01*
X729416Y615377D01*
X729277Y615416D01*
X729139Y615459D01*
X729003Y615506D01*
X728867Y615556D01*
X728733Y615610D01*
X728601Y615667D01*
X728470Y615728D01*
X728341Y615792D01*
X728213Y615860D01*
X728087Y615930D01*
X727963Y616005D01*
X727842Y616082D01*
X727722Y616163D01*
X727604Y616246D01*
X727489Y616333D01*
X727376Y616423D01*
X727265Y616516D01*
X727157Y616611D01*
X727051Y616710D01*
X726948Y616811D01*
X727273Y624276D02*
X727275Y624375D01*
X727281Y624475D01*
X727290Y624574D01*
X727303Y624672D01*
X727320Y624770D01*
X727341Y624868D01*
X727366Y624964D01*
X727394Y625059D01*
X727426Y625153D01*
X727461Y625246D01*
X727500Y625338D01*
X727543Y625428D01*
X727588Y625516D01*
X727638Y625603D01*
X727690Y625687D01*
X727746Y625770D01*
X727804Y625850D01*
X727866Y625928D01*
X727931Y626003D01*
X727999Y626076D01*
X728069Y626146D01*
X728142Y626214D01*
X728217Y626279D01*
X728295Y626341D01*
X728375Y626399D01*
X728458Y626455D01*
X728542Y626507D01*
X728629Y626557D01*
X728717Y626602D01*
X728807Y626645D01*
X728899Y626684D01*
X728992Y626719D01*
X729086Y626751D01*
X729181Y626779D01*
X729278Y626804D01*
X729375Y626825D01*
X729473Y626842D01*
X729571Y626855D01*
X729670Y626864D01*
X729770Y626870D01*
X729869Y626872D01*
X730005Y626870D01*
X730141Y626864D01*
X730277Y626855D01*
X730413Y626842D01*
X730548Y626824D01*
X730682Y626804D01*
X730816Y626779D01*
X730950Y626751D01*
X731082Y626718D01*
X731213Y626683D01*
X731344Y626643D01*
X731473Y626600D01*
X731601Y626554D01*
X731727Y626503D01*
X731853Y626450D01*
X731976Y626392D01*
X732098Y626332D01*
X732218Y626268D01*
X732337Y626200D01*
X732453Y626130D01*
X732567Y626056D01*
X732680Y625979D01*
X732790Y625898D01*
X728571Y622004D02*
X728485Y622057D01*
X728401Y622114D01*
X728319Y622173D01*
X728239Y622236D01*
X728162Y622302D01*
X728087Y622370D01*
X728015Y622442D01*
X727946Y622516D01*
X727880Y622593D01*
X727817Y622672D01*
X727757Y622754D01*
X727700Y622838D01*
X727646Y622924D01*
X727596Y623012D01*
X727549Y623102D01*
X727505Y623193D01*
X727466Y623287D01*
X727429Y623381D01*
X727397Y623477D01*
X727368Y623575D01*
X727343Y623673D01*
X727322Y623772D01*
X727304Y623872D01*
X727291Y623972D01*
X727281Y624073D01*
X727275Y624175D01*
X727273Y624276D01*
X732141Y620056D02*
X732227Y620003D01*
X732311Y619946D01*
X732393Y619887D01*
X732473Y619824D01*
X732550Y619758D01*
X732625Y619690D01*
X732697Y619618D01*
X732766Y619544D01*
X732832Y619467D01*
X732895Y619388D01*
X732955Y619306D01*
X733012Y619222D01*
X733066Y619136D01*
X733116Y619048D01*
X733163Y618958D01*
X733207Y618867D01*
X733246Y618773D01*
X733283Y618679D01*
X733315Y618583D01*
X733344Y618485D01*
X733369Y618387D01*
X733390Y618288D01*
X733408Y618188D01*
X733421Y618088D01*
X733431Y617987D01*
X733437Y617885D01*
X733439Y617784D01*
X732141Y620056D02*
X728571Y622004D01*
X790448Y626872D02*
X790448Y615188D01*
X790448Y626872D02*
X793694Y626872D01*
X793807Y626870D01*
X793920Y626864D01*
X794033Y626854D01*
X794146Y626840D01*
X794258Y626823D01*
X794369Y626801D01*
X794479Y626776D01*
X794589Y626746D01*
X794697Y626713D01*
X794804Y626676D01*
X794910Y626636D01*
X795014Y626591D01*
X795117Y626543D01*
X795218Y626492D01*
X795317Y626437D01*
X795414Y626379D01*
X795509Y626317D01*
X795602Y626252D01*
X795692Y626184D01*
X795780Y626113D01*
X795866Y626038D01*
X795949Y625961D01*
X796029Y625881D01*
X796106Y625798D01*
X796181Y625712D01*
X796252Y625624D01*
X796320Y625534D01*
X796385Y625441D01*
X796447Y625346D01*
X796505Y625249D01*
X796560Y625150D01*
X796611Y625049D01*
X796659Y624946D01*
X796704Y624842D01*
X796744Y624736D01*
X796781Y624629D01*
X796814Y624521D01*
X796844Y624411D01*
X796869Y624301D01*
X796891Y624190D01*
X796908Y624078D01*
X796922Y623965D01*
X796932Y623852D01*
X796938Y623739D01*
X796940Y623626D01*
X796938Y623513D01*
X796932Y623400D01*
X796922Y623287D01*
X796908Y623174D01*
X796891Y623062D01*
X796869Y622951D01*
X796844Y622841D01*
X796814Y622731D01*
X796781Y622623D01*
X796744Y622516D01*
X796704Y622410D01*
X796659Y622306D01*
X796611Y622203D01*
X796560Y622102D01*
X796505Y622003D01*
X796447Y621906D01*
X796385Y621811D01*
X796320Y621718D01*
X796252Y621628D01*
X796181Y621540D01*
X796106Y621454D01*
X796029Y621371D01*
X795949Y621291D01*
X795866Y621214D01*
X795780Y621139D01*
X795692Y621068D01*
X795602Y621000D01*
X795509Y620935D01*
X795414Y620873D01*
X795317Y620815D01*
X795218Y620760D01*
X795117Y620709D01*
X795014Y620661D01*
X794910Y620616D01*
X794804Y620576D01*
X794697Y620539D01*
X794589Y620506D01*
X794479Y620476D01*
X794369Y620451D01*
X794258Y620429D01*
X794146Y620412D01*
X794033Y620398D01*
X793920Y620388D01*
X793807Y620382D01*
X793694Y620380D01*
X793694Y620381D02*
X790448Y620381D01*
X794343Y620381D02*
X796939Y615188D01*
D10*
X453390Y532130D02*
X453290Y532128D01*
X453191Y532122D01*
X453091Y532112D01*
X452993Y532099D01*
X452894Y532081D01*
X452797Y532060D01*
X452701Y532035D01*
X452605Y532006D01*
X452511Y531973D01*
X452418Y531937D01*
X452327Y531897D01*
X452237Y531853D01*
X452149Y531806D01*
X452063Y531756D01*
X451979Y531702D01*
X451897Y531645D01*
X451818Y531585D01*
X451740Y531521D01*
X451666Y531455D01*
X451594Y531386D01*
X451525Y531314D01*
X451459Y531240D01*
X451395Y531162D01*
X451335Y531083D01*
X451278Y531001D01*
X451224Y530917D01*
X451174Y530831D01*
X451127Y530743D01*
X451083Y530653D01*
X451043Y530562D01*
X451007Y530469D01*
X450974Y530375D01*
X450945Y530279D01*
X450920Y530183D01*
X450899Y530086D01*
X450881Y529987D01*
X450868Y529889D01*
X450858Y529789D01*
X450852Y529690D01*
X450850Y529590D01*
X450850Y511810D02*
X450852Y511710D01*
X450858Y511611D01*
X450868Y511511D01*
X450881Y511413D01*
X450899Y511314D01*
X450920Y511217D01*
X450945Y511121D01*
X450974Y511025D01*
X451007Y510931D01*
X451043Y510838D01*
X451083Y510747D01*
X451127Y510657D01*
X451174Y510569D01*
X451224Y510483D01*
X451278Y510399D01*
X451335Y510317D01*
X451395Y510238D01*
X451459Y510160D01*
X451525Y510086D01*
X451594Y510014D01*
X451666Y509945D01*
X451740Y509879D01*
X451818Y509815D01*
X451897Y509755D01*
X451979Y509698D01*
X452063Y509644D01*
X452149Y509594D01*
X452237Y509547D01*
X452327Y509503D01*
X452418Y509463D01*
X452511Y509427D01*
X452605Y509394D01*
X452701Y509365D01*
X452797Y509340D01*
X452894Y509319D01*
X452993Y509301D01*
X453091Y509288D01*
X453191Y509278D01*
X453290Y509272D01*
X453390Y509270D01*
X511810Y509270D02*
X511910Y509272D01*
X512009Y509278D01*
X512109Y509288D01*
X512207Y509301D01*
X512306Y509319D01*
X512403Y509340D01*
X512499Y509365D01*
X512595Y509394D01*
X512689Y509427D01*
X512782Y509463D01*
X512873Y509503D01*
X512963Y509547D01*
X513051Y509594D01*
X513137Y509644D01*
X513221Y509698D01*
X513303Y509755D01*
X513382Y509815D01*
X513460Y509879D01*
X513534Y509945D01*
X513606Y510014D01*
X513675Y510086D01*
X513741Y510160D01*
X513805Y510238D01*
X513865Y510317D01*
X513922Y510399D01*
X513976Y510483D01*
X514026Y510569D01*
X514073Y510657D01*
X514117Y510747D01*
X514157Y510838D01*
X514193Y510931D01*
X514226Y511025D01*
X514255Y511121D01*
X514280Y511217D01*
X514301Y511314D01*
X514319Y511413D01*
X514332Y511511D01*
X514342Y511611D01*
X514348Y511710D01*
X514350Y511810D01*
X514350Y529590D02*
X514348Y529690D01*
X514342Y529789D01*
X514332Y529889D01*
X514319Y529987D01*
X514301Y530086D01*
X514280Y530183D01*
X514255Y530279D01*
X514226Y530375D01*
X514193Y530469D01*
X514157Y530562D01*
X514117Y530653D01*
X514073Y530743D01*
X514026Y530831D01*
X513976Y530917D01*
X513922Y531001D01*
X513865Y531083D01*
X513805Y531162D01*
X513741Y531240D01*
X513675Y531314D01*
X513606Y531386D01*
X513534Y531455D01*
X513460Y531521D01*
X513382Y531585D01*
X513303Y531645D01*
X513221Y531702D01*
X513137Y531756D01*
X513051Y531806D01*
X512963Y531853D01*
X512873Y531897D01*
X512782Y531937D01*
X512689Y531973D01*
X512595Y532006D01*
X512499Y532035D01*
X512403Y532060D01*
X512306Y532081D01*
X512207Y532099D01*
X512109Y532112D01*
X512009Y532122D01*
X511910Y532128D01*
X511810Y532130D01*
X450850Y529590D02*
X450850Y511810D01*
X453390Y532130D02*
X457200Y532130D01*
X458470Y530860D01*
X457200Y509270D02*
X453390Y509270D01*
X457200Y509270D02*
X458470Y510540D01*
X506730Y530860D02*
X508000Y532130D01*
X506730Y530860D02*
X458470Y530860D01*
X506730Y510540D02*
X508000Y509270D01*
X506730Y510540D02*
X458470Y510540D01*
X508000Y532130D02*
X511810Y532130D01*
X511810Y509270D02*
X508000Y509270D01*
X514350Y511810D02*
X514350Y529590D01*
D11*
X452755Y536575D02*
X452755Y548005D01*
X455930Y548005D01*
X456041Y548003D01*
X456151Y547997D01*
X456262Y547988D01*
X456372Y547974D01*
X456481Y547957D01*
X456590Y547936D01*
X456698Y547911D01*
X456805Y547882D01*
X456911Y547850D01*
X457016Y547814D01*
X457119Y547774D01*
X457221Y547731D01*
X457322Y547684D01*
X457421Y547633D01*
X457518Y547580D01*
X457612Y547523D01*
X457705Y547462D01*
X457796Y547399D01*
X457885Y547332D01*
X457971Y547262D01*
X458054Y547189D01*
X458136Y547114D01*
X458214Y547036D01*
X458289Y546954D01*
X458362Y546871D01*
X458432Y546785D01*
X458499Y546696D01*
X458562Y546605D01*
X458623Y546512D01*
X458680Y546417D01*
X458733Y546321D01*
X458784Y546222D01*
X458831Y546121D01*
X458874Y546019D01*
X458914Y545916D01*
X458950Y545811D01*
X458982Y545705D01*
X459011Y545598D01*
X459036Y545490D01*
X459057Y545381D01*
X459074Y545272D01*
X459088Y545162D01*
X459097Y545051D01*
X459103Y544941D01*
X459105Y544830D01*
X459103Y544719D01*
X459097Y544609D01*
X459088Y544498D01*
X459074Y544388D01*
X459057Y544279D01*
X459036Y544170D01*
X459011Y544062D01*
X458982Y543955D01*
X458950Y543849D01*
X458914Y543744D01*
X458874Y543641D01*
X458831Y543539D01*
X458784Y543438D01*
X458733Y543339D01*
X458680Y543243D01*
X458623Y543148D01*
X458562Y543055D01*
X458499Y542964D01*
X458432Y542875D01*
X458362Y542789D01*
X458289Y542706D01*
X458214Y542624D01*
X458136Y542546D01*
X458054Y542471D01*
X457971Y542398D01*
X457885Y542328D01*
X457796Y542261D01*
X457705Y542198D01*
X457612Y542137D01*
X457518Y542080D01*
X457421Y542027D01*
X457322Y541976D01*
X457221Y541929D01*
X457119Y541886D01*
X457016Y541846D01*
X456911Y541810D01*
X456805Y541778D01*
X456698Y541749D01*
X456590Y541724D01*
X456481Y541703D01*
X456372Y541686D01*
X456262Y541672D01*
X456151Y541663D01*
X456041Y541657D01*
X455930Y541655D01*
X452755Y541655D01*
X456565Y541655D02*
X459105Y536575D01*
X464102Y545465D02*
X467277Y548005D01*
X467277Y536575D01*
X464102Y536575D02*
X470452Y536575D01*
D17*
X518668Y520700D03*
X446532Y520700D03*
D10*
X-346710Y595630D02*
X-346810Y595628D01*
X-346909Y595622D01*
X-347009Y595612D01*
X-347107Y595599D01*
X-347206Y595581D01*
X-347303Y595560D01*
X-347399Y595535D01*
X-347495Y595506D01*
X-347589Y595473D01*
X-347682Y595437D01*
X-347773Y595397D01*
X-347863Y595353D01*
X-347951Y595306D01*
X-348037Y595256D01*
X-348121Y595202D01*
X-348203Y595145D01*
X-348282Y595085D01*
X-348360Y595021D01*
X-348434Y594955D01*
X-348506Y594886D01*
X-348575Y594814D01*
X-348641Y594740D01*
X-348705Y594662D01*
X-348765Y594583D01*
X-348822Y594501D01*
X-348876Y594417D01*
X-348926Y594331D01*
X-348973Y594243D01*
X-349017Y594153D01*
X-349057Y594062D01*
X-349093Y593969D01*
X-349126Y593875D01*
X-349155Y593779D01*
X-349180Y593683D01*
X-349201Y593586D01*
X-349219Y593487D01*
X-349232Y593389D01*
X-349242Y593289D01*
X-349248Y593190D01*
X-349250Y593090D01*
X-349250Y575310D02*
X-349248Y575210D01*
X-349242Y575111D01*
X-349232Y575011D01*
X-349219Y574913D01*
X-349201Y574814D01*
X-349180Y574717D01*
X-349155Y574621D01*
X-349126Y574525D01*
X-349093Y574431D01*
X-349057Y574338D01*
X-349017Y574247D01*
X-348973Y574157D01*
X-348926Y574069D01*
X-348876Y573983D01*
X-348822Y573899D01*
X-348765Y573817D01*
X-348705Y573738D01*
X-348641Y573660D01*
X-348575Y573586D01*
X-348506Y573514D01*
X-348434Y573445D01*
X-348360Y573379D01*
X-348282Y573315D01*
X-348203Y573255D01*
X-348121Y573198D01*
X-348037Y573144D01*
X-347951Y573094D01*
X-347863Y573047D01*
X-347773Y573003D01*
X-347682Y572963D01*
X-347589Y572927D01*
X-347495Y572894D01*
X-347399Y572865D01*
X-347303Y572840D01*
X-347206Y572819D01*
X-347107Y572801D01*
X-347009Y572788D01*
X-346909Y572778D01*
X-346810Y572772D01*
X-346710Y572770D01*
X-288290Y572770D02*
X-288190Y572772D01*
X-288091Y572778D01*
X-287991Y572788D01*
X-287893Y572801D01*
X-287794Y572819D01*
X-287697Y572840D01*
X-287601Y572865D01*
X-287505Y572894D01*
X-287411Y572927D01*
X-287318Y572963D01*
X-287227Y573003D01*
X-287137Y573047D01*
X-287049Y573094D01*
X-286963Y573144D01*
X-286879Y573198D01*
X-286797Y573255D01*
X-286718Y573315D01*
X-286640Y573379D01*
X-286566Y573445D01*
X-286494Y573514D01*
X-286425Y573586D01*
X-286359Y573660D01*
X-286295Y573738D01*
X-286235Y573817D01*
X-286178Y573899D01*
X-286124Y573983D01*
X-286074Y574069D01*
X-286027Y574157D01*
X-285983Y574247D01*
X-285943Y574338D01*
X-285907Y574431D01*
X-285874Y574525D01*
X-285845Y574621D01*
X-285820Y574717D01*
X-285799Y574814D01*
X-285781Y574913D01*
X-285768Y575011D01*
X-285758Y575111D01*
X-285752Y575210D01*
X-285750Y575310D01*
X-285750Y593090D02*
X-285752Y593190D01*
X-285758Y593289D01*
X-285768Y593389D01*
X-285781Y593487D01*
X-285799Y593586D01*
X-285820Y593683D01*
X-285845Y593779D01*
X-285874Y593875D01*
X-285907Y593969D01*
X-285943Y594062D01*
X-285983Y594153D01*
X-286027Y594243D01*
X-286074Y594331D01*
X-286124Y594417D01*
X-286178Y594501D01*
X-286235Y594583D01*
X-286295Y594662D01*
X-286359Y594740D01*
X-286425Y594814D01*
X-286494Y594886D01*
X-286566Y594955D01*
X-286640Y595021D01*
X-286718Y595085D01*
X-286797Y595145D01*
X-286879Y595202D01*
X-286963Y595256D01*
X-287049Y595306D01*
X-287137Y595353D01*
X-287227Y595397D01*
X-287318Y595437D01*
X-287411Y595473D01*
X-287505Y595506D01*
X-287601Y595535D01*
X-287697Y595560D01*
X-287794Y595581D01*
X-287893Y595599D01*
X-287991Y595612D01*
X-288091Y595622D01*
X-288190Y595628D01*
X-288290Y595630D01*
X-349250Y593090D02*
X-349250Y575310D01*
X-346710Y595630D02*
X-342900Y595630D01*
X-341630Y594360D01*
X-342900Y572770D02*
X-346710Y572770D01*
X-342900Y572770D02*
X-341630Y574040D01*
X-293370Y594360D02*
X-292100Y595630D01*
X-293370Y594360D02*
X-341630Y594360D01*
X-293370Y574040D02*
X-292100Y572770D01*
X-293370Y574040D02*
X-341630Y574040D01*
X-292100Y595630D02*
X-288290Y595630D01*
X-288290Y572770D02*
X-292100Y572770D01*
X-285750Y575310D02*
X-285750Y593090D01*
D11*
X-347345Y600075D02*
X-347345Y611505D01*
X-344170Y611505D01*
X-344059Y611503D01*
X-343949Y611497D01*
X-343838Y611488D01*
X-343728Y611474D01*
X-343619Y611457D01*
X-343510Y611436D01*
X-343402Y611411D01*
X-343295Y611382D01*
X-343189Y611350D01*
X-343084Y611314D01*
X-342981Y611274D01*
X-342879Y611231D01*
X-342778Y611184D01*
X-342679Y611133D01*
X-342582Y611080D01*
X-342488Y611023D01*
X-342395Y610962D01*
X-342304Y610899D01*
X-342215Y610832D01*
X-342129Y610762D01*
X-342046Y610689D01*
X-341964Y610614D01*
X-341886Y610536D01*
X-341811Y610454D01*
X-341738Y610371D01*
X-341668Y610285D01*
X-341601Y610196D01*
X-341538Y610105D01*
X-341477Y610012D01*
X-341420Y609917D01*
X-341367Y609821D01*
X-341316Y609722D01*
X-341269Y609621D01*
X-341226Y609519D01*
X-341186Y609416D01*
X-341150Y609311D01*
X-341118Y609205D01*
X-341089Y609098D01*
X-341064Y608990D01*
X-341043Y608881D01*
X-341026Y608772D01*
X-341012Y608662D01*
X-341003Y608551D01*
X-340997Y608441D01*
X-340995Y608330D01*
X-340997Y608219D01*
X-341003Y608109D01*
X-341012Y607998D01*
X-341026Y607888D01*
X-341043Y607779D01*
X-341064Y607670D01*
X-341089Y607562D01*
X-341118Y607455D01*
X-341150Y607349D01*
X-341186Y607244D01*
X-341226Y607141D01*
X-341269Y607039D01*
X-341316Y606938D01*
X-341367Y606839D01*
X-341420Y606743D01*
X-341477Y606648D01*
X-341538Y606555D01*
X-341601Y606464D01*
X-341668Y606375D01*
X-341738Y606289D01*
X-341811Y606206D01*
X-341886Y606124D01*
X-341964Y606046D01*
X-342046Y605971D01*
X-342129Y605898D01*
X-342215Y605828D01*
X-342304Y605761D01*
X-342395Y605698D01*
X-342488Y605637D01*
X-342583Y605580D01*
X-342679Y605527D01*
X-342778Y605476D01*
X-342879Y605429D01*
X-342981Y605386D01*
X-343084Y605346D01*
X-343189Y605310D01*
X-343295Y605278D01*
X-343402Y605249D01*
X-343510Y605224D01*
X-343619Y605203D01*
X-343728Y605186D01*
X-343838Y605172D01*
X-343949Y605163D01*
X-344059Y605157D01*
X-344170Y605155D01*
X-347345Y605155D01*
X-343535Y605155D02*
X-340995Y600075D01*
X-329647Y608648D02*
X-329649Y608752D01*
X-329655Y608857D01*
X-329664Y608961D01*
X-329677Y609064D01*
X-329695Y609167D01*
X-329715Y609269D01*
X-329740Y609371D01*
X-329768Y609471D01*
X-329800Y609571D01*
X-329836Y609669D01*
X-329875Y609766D01*
X-329917Y609861D01*
X-329963Y609955D01*
X-330013Y610047D01*
X-330065Y610137D01*
X-330121Y610225D01*
X-330181Y610311D01*
X-330243Y610395D01*
X-330308Y610476D01*
X-330376Y610555D01*
X-330448Y610632D01*
X-330521Y610705D01*
X-330598Y610777D01*
X-330677Y610845D01*
X-330758Y610910D01*
X-330842Y610972D01*
X-330928Y611032D01*
X-331016Y611088D01*
X-331106Y611140D01*
X-331198Y611190D01*
X-331292Y611236D01*
X-331387Y611278D01*
X-331484Y611317D01*
X-331582Y611353D01*
X-331682Y611385D01*
X-331782Y611413D01*
X-331884Y611438D01*
X-331986Y611458D01*
X-332089Y611476D01*
X-332192Y611489D01*
X-332296Y611498D01*
X-332401Y611504D01*
X-332505Y611506D01*
X-332505Y611505D02*
X-332623Y611503D01*
X-332742Y611497D01*
X-332860Y611488D01*
X-332977Y611475D01*
X-333094Y611457D01*
X-333211Y611437D01*
X-333327Y611412D01*
X-333442Y611384D01*
X-333555Y611351D01*
X-333668Y611316D01*
X-333780Y611276D01*
X-333890Y611234D01*
X-333999Y611187D01*
X-334107Y611137D01*
X-334212Y611084D01*
X-334316Y611027D01*
X-334418Y610967D01*
X-334518Y610904D01*
X-334616Y610837D01*
X-334712Y610768D01*
X-334805Y610695D01*
X-334896Y610619D01*
X-334985Y610541D01*
X-335071Y610459D01*
X-335154Y610375D01*
X-335235Y610289D01*
X-335312Y610199D01*
X-335387Y610108D01*
X-335459Y610014D01*
X-335528Y609917D01*
X-335593Y609819D01*
X-335656Y609718D01*
X-335715Y609615D01*
X-335771Y609511D01*
X-335823Y609405D01*
X-335872Y609297D01*
X-335917Y609188D01*
X-335959Y609077D01*
X-335997Y608965D01*
X-330600Y606426D02*
X-330524Y606501D01*
X-330449Y606580D01*
X-330378Y606661D01*
X-330309Y606745D01*
X-330244Y606831D01*
X-330182Y606919D01*
X-330122Y607009D01*
X-330066Y607101D01*
X-330013Y607196D01*
X-329964Y607292D01*
X-329918Y607390D01*
X-329875Y607489D01*
X-329836Y607590D01*
X-329801Y607692D01*
X-329769Y607795D01*
X-329741Y607899D01*
X-329716Y608004D01*
X-329695Y608111D01*
X-329678Y608217D01*
X-329665Y608324D01*
X-329656Y608432D01*
X-329650Y608540D01*
X-329648Y608648D01*
X-330600Y606425D02*
X-335998Y600075D01*
X-329648Y600075D01*
D17*
X-281432Y584200D03*
X-353568Y584200D03*
D10*
X603250Y453390D02*
X603252Y453490D01*
X603258Y453589D01*
X603268Y453689D01*
X603281Y453787D01*
X603299Y453886D01*
X603320Y453983D01*
X603345Y454079D01*
X603374Y454175D01*
X603407Y454269D01*
X603443Y454362D01*
X603483Y454453D01*
X603527Y454543D01*
X603574Y454631D01*
X603624Y454717D01*
X603678Y454801D01*
X603735Y454883D01*
X603795Y454962D01*
X603859Y455040D01*
X603925Y455114D01*
X603994Y455186D01*
X604066Y455255D01*
X604140Y455321D01*
X604218Y455385D01*
X604297Y455445D01*
X604379Y455502D01*
X604463Y455556D01*
X604549Y455606D01*
X604637Y455653D01*
X604727Y455697D01*
X604818Y455737D01*
X604911Y455773D01*
X605005Y455806D01*
X605101Y455835D01*
X605197Y455860D01*
X605294Y455881D01*
X605393Y455899D01*
X605491Y455912D01*
X605591Y455922D01*
X605690Y455928D01*
X605790Y455930D01*
X603250Y435610D02*
X603252Y435510D01*
X603258Y435411D01*
X603268Y435311D01*
X603281Y435213D01*
X603299Y435114D01*
X603320Y435017D01*
X603345Y434921D01*
X603374Y434825D01*
X603407Y434731D01*
X603443Y434638D01*
X603483Y434547D01*
X603527Y434457D01*
X603574Y434369D01*
X603624Y434283D01*
X603678Y434199D01*
X603735Y434117D01*
X603795Y434038D01*
X603859Y433960D01*
X603925Y433886D01*
X603994Y433814D01*
X604066Y433745D01*
X604140Y433679D01*
X604218Y433615D01*
X604297Y433555D01*
X604379Y433498D01*
X604463Y433444D01*
X604549Y433394D01*
X604637Y433347D01*
X604727Y433303D01*
X604818Y433263D01*
X604911Y433227D01*
X605005Y433194D01*
X605101Y433165D01*
X605197Y433140D01*
X605294Y433119D01*
X605393Y433101D01*
X605491Y433088D01*
X605591Y433078D01*
X605690Y433072D01*
X605790Y433070D01*
X664210Y433070D02*
X664310Y433072D01*
X664409Y433078D01*
X664509Y433088D01*
X664607Y433101D01*
X664706Y433119D01*
X664803Y433140D01*
X664899Y433165D01*
X664995Y433194D01*
X665089Y433227D01*
X665182Y433263D01*
X665273Y433303D01*
X665363Y433347D01*
X665451Y433394D01*
X665537Y433444D01*
X665621Y433498D01*
X665703Y433555D01*
X665782Y433615D01*
X665860Y433679D01*
X665934Y433745D01*
X666006Y433814D01*
X666075Y433886D01*
X666141Y433960D01*
X666205Y434038D01*
X666265Y434117D01*
X666322Y434199D01*
X666376Y434283D01*
X666426Y434369D01*
X666473Y434457D01*
X666517Y434547D01*
X666557Y434638D01*
X666593Y434731D01*
X666626Y434825D01*
X666655Y434921D01*
X666680Y435017D01*
X666701Y435114D01*
X666719Y435213D01*
X666732Y435311D01*
X666742Y435411D01*
X666748Y435510D01*
X666750Y435610D01*
X666750Y453390D02*
X666748Y453490D01*
X666742Y453589D01*
X666732Y453689D01*
X666719Y453787D01*
X666701Y453886D01*
X666680Y453983D01*
X666655Y454079D01*
X666626Y454175D01*
X666593Y454269D01*
X666557Y454362D01*
X666517Y454453D01*
X666473Y454543D01*
X666426Y454631D01*
X666376Y454717D01*
X666322Y454801D01*
X666265Y454883D01*
X666205Y454962D01*
X666141Y455040D01*
X666075Y455114D01*
X666006Y455186D01*
X665934Y455255D01*
X665860Y455321D01*
X665782Y455385D01*
X665703Y455445D01*
X665621Y455502D01*
X665537Y455556D01*
X665451Y455606D01*
X665363Y455653D01*
X665273Y455697D01*
X665182Y455737D01*
X665089Y455773D01*
X664995Y455806D01*
X664899Y455835D01*
X664803Y455860D01*
X664706Y455881D01*
X664607Y455899D01*
X664509Y455912D01*
X664409Y455922D01*
X664310Y455928D01*
X664210Y455930D01*
X603250Y453390D02*
X603250Y435610D01*
X605790Y455930D02*
X609600Y455930D01*
X610870Y454660D01*
X609600Y433070D02*
X605790Y433070D01*
X609600Y433070D02*
X610870Y434340D01*
X659130Y454660D02*
X660400Y455930D01*
X659130Y454660D02*
X610870Y454660D01*
X659130Y434340D02*
X660400Y433070D01*
X659130Y434340D02*
X610870Y434340D01*
X660400Y455930D02*
X664210Y455930D01*
X664210Y433070D02*
X660400Y433070D01*
X666750Y435610D02*
X666750Y453390D01*
D11*
X605155Y460375D02*
X605155Y471805D01*
X608330Y471805D01*
X608441Y471803D01*
X608551Y471797D01*
X608662Y471788D01*
X608772Y471774D01*
X608881Y471757D01*
X608990Y471736D01*
X609098Y471711D01*
X609205Y471682D01*
X609311Y471650D01*
X609416Y471614D01*
X609519Y471574D01*
X609621Y471531D01*
X609722Y471484D01*
X609821Y471433D01*
X609918Y471380D01*
X610012Y471323D01*
X610105Y471262D01*
X610196Y471199D01*
X610285Y471132D01*
X610371Y471062D01*
X610454Y470989D01*
X610536Y470914D01*
X610614Y470836D01*
X610689Y470754D01*
X610762Y470671D01*
X610832Y470585D01*
X610899Y470496D01*
X610962Y470405D01*
X611023Y470312D01*
X611080Y470217D01*
X611133Y470121D01*
X611184Y470022D01*
X611231Y469921D01*
X611274Y469819D01*
X611314Y469716D01*
X611350Y469611D01*
X611382Y469505D01*
X611411Y469398D01*
X611436Y469290D01*
X611457Y469181D01*
X611474Y469072D01*
X611488Y468962D01*
X611497Y468851D01*
X611503Y468741D01*
X611505Y468630D01*
X611503Y468519D01*
X611497Y468409D01*
X611488Y468298D01*
X611474Y468188D01*
X611457Y468079D01*
X611436Y467970D01*
X611411Y467862D01*
X611382Y467755D01*
X611350Y467649D01*
X611314Y467544D01*
X611274Y467441D01*
X611231Y467339D01*
X611184Y467238D01*
X611133Y467139D01*
X611080Y467042D01*
X611023Y466948D01*
X610962Y466855D01*
X610899Y466764D01*
X610832Y466675D01*
X610762Y466589D01*
X610689Y466506D01*
X610614Y466424D01*
X610536Y466346D01*
X610454Y466271D01*
X610371Y466198D01*
X610285Y466128D01*
X610196Y466061D01*
X610105Y465998D01*
X610012Y465937D01*
X609918Y465880D01*
X609821Y465827D01*
X609722Y465776D01*
X609621Y465729D01*
X609519Y465686D01*
X609416Y465646D01*
X609311Y465610D01*
X609205Y465578D01*
X609098Y465549D01*
X608990Y465524D01*
X608881Y465503D01*
X608772Y465486D01*
X608662Y465472D01*
X608551Y465463D01*
X608441Y465457D01*
X608330Y465455D01*
X605155Y465455D01*
X608965Y465455D02*
X611505Y460375D01*
X616502Y460375D02*
X619677Y460375D01*
X619788Y460377D01*
X619898Y460383D01*
X620009Y460392D01*
X620119Y460406D01*
X620228Y460423D01*
X620337Y460444D01*
X620445Y460469D01*
X620552Y460498D01*
X620658Y460530D01*
X620763Y460566D01*
X620866Y460606D01*
X620968Y460649D01*
X621069Y460696D01*
X621168Y460747D01*
X621265Y460800D01*
X621359Y460857D01*
X621452Y460918D01*
X621543Y460981D01*
X621632Y461048D01*
X621718Y461118D01*
X621801Y461191D01*
X621883Y461266D01*
X621961Y461344D01*
X622036Y461426D01*
X622109Y461509D01*
X622179Y461595D01*
X622246Y461684D01*
X622309Y461775D01*
X622370Y461868D01*
X622427Y461962D01*
X622480Y462059D01*
X622531Y462158D01*
X622578Y462259D01*
X622621Y462361D01*
X622661Y462464D01*
X622697Y462569D01*
X622729Y462675D01*
X622758Y462782D01*
X622783Y462890D01*
X622804Y462999D01*
X622821Y463108D01*
X622835Y463218D01*
X622844Y463329D01*
X622850Y463439D01*
X622852Y463550D01*
X622850Y463661D01*
X622844Y463771D01*
X622835Y463882D01*
X622821Y463992D01*
X622804Y464101D01*
X622783Y464210D01*
X622758Y464318D01*
X622729Y464425D01*
X622697Y464531D01*
X622661Y464636D01*
X622621Y464739D01*
X622578Y464841D01*
X622531Y464942D01*
X622480Y465041D01*
X622427Y465137D01*
X622370Y465232D01*
X622309Y465325D01*
X622246Y465416D01*
X622179Y465505D01*
X622109Y465591D01*
X622036Y465674D01*
X621961Y465756D01*
X621883Y465834D01*
X621801Y465909D01*
X621718Y465982D01*
X621632Y466052D01*
X621543Y466119D01*
X621452Y466182D01*
X621359Y466243D01*
X621265Y466300D01*
X621168Y466353D01*
X621069Y466404D01*
X620968Y466451D01*
X620866Y466494D01*
X620763Y466534D01*
X620658Y466570D01*
X620552Y466602D01*
X620445Y466631D01*
X620337Y466656D01*
X620228Y466677D01*
X620119Y466694D01*
X620009Y466708D01*
X619898Y466717D01*
X619788Y466723D01*
X619677Y466725D01*
X620312Y471805D02*
X616502Y471805D01*
X620312Y471805D02*
X620412Y471803D01*
X620511Y471797D01*
X620611Y471787D01*
X620709Y471774D01*
X620808Y471756D01*
X620905Y471735D01*
X621001Y471710D01*
X621097Y471681D01*
X621191Y471648D01*
X621284Y471612D01*
X621375Y471572D01*
X621465Y471528D01*
X621553Y471481D01*
X621639Y471431D01*
X621723Y471377D01*
X621805Y471320D01*
X621884Y471260D01*
X621962Y471196D01*
X622036Y471130D01*
X622108Y471061D01*
X622177Y470989D01*
X622243Y470915D01*
X622307Y470837D01*
X622367Y470758D01*
X622424Y470676D01*
X622478Y470592D01*
X622528Y470506D01*
X622575Y470418D01*
X622619Y470328D01*
X622659Y470237D01*
X622695Y470144D01*
X622728Y470050D01*
X622757Y469954D01*
X622782Y469858D01*
X622803Y469761D01*
X622821Y469662D01*
X622834Y469564D01*
X622844Y469464D01*
X622850Y469365D01*
X622852Y469265D01*
X622850Y469165D01*
X622844Y469066D01*
X622834Y468966D01*
X622821Y468868D01*
X622803Y468769D01*
X622782Y468672D01*
X622757Y468576D01*
X622728Y468480D01*
X622695Y468386D01*
X622659Y468293D01*
X622619Y468202D01*
X622575Y468112D01*
X622528Y468024D01*
X622478Y467938D01*
X622424Y467854D01*
X622367Y467772D01*
X622307Y467693D01*
X622243Y467615D01*
X622177Y467541D01*
X622108Y467469D01*
X622036Y467400D01*
X621962Y467334D01*
X621884Y467270D01*
X621805Y467210D01*
X621723Y467153D01*
X621639Y467099D01*
X621553Y467049D01*
X621465Y467002D01*
X621375Y466958D01*
X621284Y466918D01*
X621191Y466882D01*
X621097Y466849D01*
X621001Y466820D01*
X620905Y466795D01*
X620808Y466774D01*
X620709Y466756D01*
X620611Y466743D01*
X620511Y466733D01*
X620412Y466727D01*
X620312Y466725D01*
X617772Y466725D01*
D17*
X671068Y444500D03*
X598932Y444500D03*
D10*
X781050Y504190D02*
X781052Y504290D01*
X781058Y504389D01*
X781068Y504489D01*
X781081Y504587D01*
X781099Y504686D01*
X781120Y504783D01*
X781145Y504879D01*
X781174Y504975D01*
X781207Y505069D01*
X781243Y505162D01*
X781283Y505253D01*
X781327Y505343D01*
X781374Y505431D01*
X781424Y505517D01*
X781478Y505601D01*
X781535Y505683D01*
X781595Y505762D01*
X781659Y505840D01*
X781725Y505914D01*
X781794Y505986D01*
X781866Y506055D01*
X781940Y506121D01*
X782018Y506185D01*
X782097Y506245D01*
X782179Y506302D01*
X782263Y506356D01*
X782349Y506406D01*
X782437Y506453D01*
X782527Y506497D01*
X782618Y506537D01*
X782711Y506573D01*
X782805Y506606D01*
X782901Y506635D01*
X782997Y506660D01*
X783094Y506681D01*
X783193Y506699D01*
X783291Y506712D01*
X783391Y506722D01*
X783490Y506728D01*
X783590Y506730D01*
X781050Y486410D02*
X781052Y486310D01*
X781058Y486211D01*
X781068Y486111D01*
X781081Y486013D01*
X781099Y485914D01*
X781120Y485817D01*
X781145Y485721D01*
X781174Y485625D01*
X781207Y485531D01*
X781243Y485438D01*
X781283Y485347D01*
X781327Y485257D01*
X781374Y485169D01*
X781424Y485083D01*
X781478Y484999D01*
X781535Y484917D01*
X781595Y484838D01*
X781659Y484760D01*
X781725Y484686D01*
X781794Y484614D01*
X781866Y484545D01*
X781940Y484479D01*
X782018Y484415D01*
X782097Y484355D01*
X782179Y484298D01*
X782263Y484244D01*
X782349Y484194D01*
X782437Y484147D01*
X782527Y484103D01*
X782618Y484063D01*
X782711Y484027D01*
X782805Y483994D01*
X782901Y483965D01*
X782997Y483940D01*
X783094Y483919D01*
X783193Y483901D01*
X783291Y483888D01*
X783391Y483878D01*
X783490Y483872D01*
X783590Y483870D01*
X842010Y483870D02*
X842110Y483872D01*
X842209Y483878D01*
X842309Y483888D01*
X842407Y483901D01*
X842506Y483919D01*
X842603Y483940D01*
X842699Y483965D01*
X842795Y483994D01*
X842889Y484027D01*
X842982Y484063D01*
X843073Y484103D01*
X843163Y484147D01*
X843251Y484194D01*
X843337Y484244D01*
X843421Y484298D01*
X843503Y484355D01*
X843582Y484415D01*
X843660Y484479D01*
X843734Y484545D01*
X843806Y484614D01*
X843875Y484686D01*
X843941Y484760D01*
X844005Y484838D01*
X844065Y484917D01*
X844122Y484999D01*
X844176Y485083D01*
X844226Y485169D01*
X844273Y485257D01*
X844317Y485347D01*
X844357Y485438D01*
X844393Y485531D01*
X844426Y485625D01*
X844455Y485721D01*
X844480Y485817D01*
X844501Y485914D01*
X844519Y486013D01*
X844532Y486111D01*
X844542Y486211D01*
X844548Y486310D01*
X844550Y486410D01*
X844550Y504190D02*
X844548Y504290D01*
X844542Y504389D01*
X844532Y504489D01*
X844519Y504587D01*
X844501Y504686D01*
X844480Y504783D01*
X844455Y504879D01*
X844426Y504975D01*
X844393Y505069D01*
X844357Y505162D01*
X844317Y505253D01*
X844273Y505343D01*
X844226Y505431D01*
X844176Y505517D01*
X844122Y505601D01*
X844065Y505683D01*
X844005Y505762D01*
X843941Y505840D01*
X843875Y505914D01*
X843806Y505986D01*
X843734Y506055D01*
X843660Y506121D01*
X843582Y506185D01*
X843503Y506245D01*
X843421Y506302D01*
X843337Y506356D01*
X843251Y506406D01*
X843163Y506453D01*
X843073Y506497D01*
X842982Y506537D01*
X842889Y506573D01*
X842795Y506606D01*
X842699Y506635D01*
X842603Y506660D01*
X842506Y506681D01*
X842407Y506699D01*
X842309Y506712D01*
X842209Y506722D01*
X842110Y506728D01*
X842010Y506730D01*
X781050Y504190D02*
X781050Y486410D01*
X783590Y506730D02*
X787400Y506730D01*
X788670Y505460D01*
X787400Y483870D02*
X783590Y483870D01*
X787400Y483870D02*
X788670Y485140D01*
X836930Y505460D02*
X838200Y506730D01*
X836930Y505460D02*
X788670Y505460D01*
X836930Y485140D02*
X838200Y483870D01*
X836930Y485140D02*
X788670Y485140D01*
X838200Y506730D02*
X842010Y506730D01*
X842010Y483870D02*
X838200Y483870D01*
X844550Y486410D02*
X844550Y504190D01*
D11*
X782955Y511175D02*
X782955Y522605D01*
X786130Y522605D01*
X786241Y522603D01*
X786351Y522597D01*
X786462Y522588D01*
X786572Y522574D01*
X786681Y522557D01*
X786790Y522536D01*
X786898Y522511D01*
X787005Y522482D01*
X787111Y522450D01*
X787216Y522414D01*
X787319Y522374D01*
X787421Y522331D01*
X787522Y522284D01*
X787621Y522233D01*
X787718Y522180D01*
X787812Y522123D01*
X787905Y522062D01*
X787996Y521999D01*
X788085Y521932D01*
X788171Y521862D01*
X788254Y521789D01*
X788336Y521714D01*
X788414Y521636D01*
X788489Y521554D01*
X788562Y521471D01*
X788632Y521385D01*
X788699Y521296D01*
X788762Y521205D01*
X788823Y521112D01*
X788880Y521017D01*
X788933Y520921D01*
X788984Y520822D01*
X789031Y520721D01*
X789074Y520619D01*
X789114Y520516D01*
X789150Y520411D01*
X789182Y520305D01*
X789211Y520198D01*
X789236Y520090D01*
X789257Y519981D01*
X789274Y519872D01*
X789288Y519762D01*
X789297Y519651D01*
X789303Y519541D01*
X789305Y519430D01*
X789303Y519319D01*
X789297Y519209D01*
X789288Y519098D01*
X789274Y518988D01*
X789257Y518879D01*
X789236Y518770D01*
X789211Y518662D01*
X789182Y518555D01*
X789150Y518449D01*
X789114Y518344D01*
X789074Y518241D01*
X789031Y518139D01*
X788984Y518038D01*
X788933Y517939D01*
X788880Y517842D01*
X788823Y517748D01*
X788762Y517655D01*
X788699Y517564D01*
X788632Y517475D01*
X788562Y517389D01*
X788489Y517306D01*
X788414Y517224D01*
X788336Y517146D01*
X788254Y517071D01*
X788171Y516998D01*
X788085Y516928D01*
X787996Y516861D01*
X787905Y516798D01*
X787812Y516737D01*
X787718Y516680D01*
X787621Y516627D01*
X787522Y516576D01*
X787421Y516529D01*
X787319Y516486D01*
X787216Y516446D01*
X787111Y516410D01*
X787005Y516378D01*
X786898Y516349D01*
X786790Y516324D01*
X786681Y516303D01*
X786572Y516286D01*
X786462Y516272D01*
X786351Y516263D01*
X786241Y516257D01*
X786130Y516255D01*
X782955Y516255D01*
X786765Y516255D02*
X789305Y511175D01*
X794302Y513715D02*
X796842Y522605D01*
X794302Y513715D02*
X800652Y513715D01*
X798747Y516255D02*
X798747Y511175D01*
D17*
X848868Y495300D03*
X776732Y495300D03*
D10*
X440690Y722630D02*
X440590Y722628D01*
X440491Y722622D01*
X440391Y722612D01*
X440293Y722599D01*
X440194Y722581D01*
X440097Y722560D01*
X440001Y722535D01*
X439905Y722506D01*
X439811Y722473D01*
X439718Y722437D01*
X439627Y722397D01*
X439537Y722353D01*
X439449Y722306D01*
X439363Y722256D01*
X439279Y722202D01*
X439197Y722145D01*
X439118Y722085D01*
X439040Y722021D01*
X438966Y721955D01*
X438894Y721886D01*
X438825Y721814D01*
X438759Y721740D01*
X438695Y721662D01*
X438635Y721583D01*
X438578Y721501D01*
X438524Y721417D01*
X438474Y721331D01*
X438427Y721243D01*
X438383Y721153D01*
X438343Y721062D01*
X438307Y720969D01*
X438274Y720875D01*
X438245Y720779D01*
X438220Y720683D01*
X438199Y720586D01*
X438181Y720487D01*
X438168Y720389D01*
X438158Y720289D01*
X438152Y720190D01*
X438150Y720090D01*
X438150Y702310D02*
X438152Y702210D01*
X438158Y702111D01*
X438168Y702011D01*
X438181Y701913D01*
X438199Y701814D01*
X438220Y701717D01*
X438245Y701621D01*
X438274Y701525D01*
X438307Y701431D01*
X438343Y701338D01*
X438383Y701247D01*
X438427Y701157D01*
X438474Y701069D01*
X438524Y700983D01*
X438578Y700899D01*
X438635Y700817D01*
X438695Y700738D01*
X438759Y700660D01*
X438825Y700586D01*
X438894Y700514D01*
X438966Y700445D01*
X439040Y700379D01*
X439118Y700315D01*
X439197Y700255D01*
X439279Y700198D01*
X439363Y700144D01*
X439449Y700094D01*
X439537Y700047D01*
X439627Y700003D01*
X439718Y699963D01*
X439811Y699927D01*
X439905Y699894D01*
X440001Y699865D01*
X440097Y699840D01*
X440194Y699819D01*
X440293Y699801D01*
X440391Y699788D01*
X440491Y699778D01*
X440590Y699772D01*
X440690Y699770D01*
X499110Y699770D02*
X499210Y699772D01*
X499309Y699778D01*
X499409Y699788D01*
X499507Y699801D01*
X499606Y699819D01*
X499703Y699840D01*
X499799Y699865D01*
X499895Y699894D01*
X499989Y699927D01*
X500082Y699963D01*
X500173Y700003D01*
X500263Y700047D01*
X500351Y700094D01*
X500437Y700144D01*
X500521Y700198D01*
X500603Y700255D01*
X500682Y700315D01*
X500760Y700379D01*
X500834Y700445D01*
X500906Y700514D01*
X500975Y700586D01*
X501041Y700660D01*
X501105Y700738D01*
X501165Y700817D01*
X501222Y700899D01*
X501276Y700983D01*
X501326Y701069D01*
X501373Y701157D01*
X501417Y701247D01*
X501457Y701338D01*
X501493Y701431D01*
X501526Y701525D01*
X501555Y701621D01*
X501580Y701717D01*
X501601Y701814D01*
X501619Y701913D01*
X501632Y702011D01*
X501642Y702111D01*
X501648Y702210D01*
X501650Y702310D01*
X501650Y720090D02*
X501648Y720190D01*
X501642Y720289D01*
X501632Y720389D01*
X501619Y720487D01*
X501601Y720586D01*
X501580Y720683D01*
X501555Y720779D01*
X501526Y720875D01*
X501493Y720969D01*
X501457Y721062D01*
X501417Y721153D01*
X501373Y721243D01*
X501326Y721331D01*
X501276Y721417D01*
X501222Y721501D01*
X501165Y721583D01*
X501105Y721662D01*
X501041Y721740D01*
X500975Y721814D01*
X500906Y721886D01*
X500834Y721955D01*
X500760Y722021D01*
X500682Y722085D01*
X500603Y722145D01*
X500521Y722202D01*
X500437Y722256D01*
X500351Y722306D01*
X500263Y722353D01*
X500173Y722397D01*
X500082Y722437D01*
X499989Y722473D01*
X499895Y722506D01*
X499799Y722535D01*
X499703Y722560D01*
X499606Y722581D01*
X499507Y722599D01*
X499409Y722612D01*
X499309Y722622D01*
X499210Y722628D01*
X499110Y722630D01*
X438150Y720090D02*
X438150Y702310D01*
X440690Y722630D02*
X444500Y722630D01*
X445770Y721360D01*
X444500Y699770D02*
X440690Y699770D01*
X444500Y699770D02*
X445770Y701040D01*
X494030Y721360D02*
X495300Y722630D01*
X494030Y721360D02*
X445770Y721360D01*
X494030Y701040D02*
X495300Y699770D01*
X494030Y701040D02*
X445770Y701040D01*
X495300Y722630D02*
X499110Y722630D01*
X499110Y699770D02*
X495300Y699770D01*
X501650Y702310D02*
X501650Y720090D01*
D11*
X440055Y727075D02*
X440055Y738505D01*
X443230Y738505D01*
X443341Y738503D01*
X443451Y738497D01*
X443562Y738488D01*
X443672Y738474D01*
X443781Y738457D01*
X443890Y738436D01*
X443998Y738411D01*
X444105Y738382D01*
X444211Y738350D01*
X444316Y738314D01*
X444419Y738274D01*
X444521Y738231D01*
X444622Y738184D01*
X444721Y738133D01*
X444818Y738080D01*
X444912Y738023D01*
X445005Y737962D01*
X445096Y737899D01*
X445185Y737832D01*
X445271Y737762D01*
X445354Y737689D01*
X445436Y737614D01*
X445514Y737536D01*
X445589Y737454D01*
X445662Y737371D01*
X445732Y737285D01*
X445799Y737196D01*
X445862Y737105D01*
X445923Y737012D01*
X445980Y736917D01*
X446033Y736821D01*
X446084Y736722D01*
X446131Y736621D01*
X446174Y736519D01*
X446214Y736416D01*
X446250Y736311D01*
X446282Y736205D01*
X446311Y736098D01*
X446336Y735990D01*
X446357Y735881D01*
X446374Y735772D01*
X446388Y735662D01*
X446397Y735551D01*
X446403Y735441D01*
X446405Y735330D01*
X446403Y735219D01*
X446397Y735109D01*
X446388Y734998D01*
X446374Y734888D01*
X446357Y734779D01*
X446336Y734670D01*
X446311Y734562D01*
X446282Y734455D01*
X446250Y734349D01*
X446214Y734244D01*
X446174Y734141D01*
X446131Y734039D01*
X446084Y733938D01*
X446033Y733839D01*
X445980Y733743D01*
X445923Y733648D01*
X445862Y733555D01*
X445799Y733464D01*
X445732Y733375D01*
X445662Y733289D01*
X445589Y733206D01*
X445514Y733124D01*
X445436Y733046D01*
X445354Y732971D01*
X445271Y732898D01*
X445185Y732828D01*
X445096Y732761D01*
X445005Y732698D01*
X444912Y732637D01*
X444818Y732580D01*
X444721Y732527D01*
X444622Y732476D01*
X444521Y732429D01*
X444419Y732386D01*
X444316Y732346D01*
X444211Y732310D01*
X444105Y732278D01*
X443998Y732249D01*
X443890Y732224D01*
X443781Y732203D01*
X443672Y732186D01*
X443562Y732172D01*
X443451Y732163D01*
X443341Y732157D01*
X443230Y732155D01*
X440055Y732155D01*
X443865Y732155D02*
X446405Y727075D01*
X451402Y727075D02*
X455212Y727075D01*
X455312Y727077D01*
X455411Y727083D01*
X455511Y727093D01*
X455609Y727106D01*
X455708Y727124D01*
X455805Y727145D01*
X455901Y727170D01*
X455997Y727199D01*
X456091Y727232D01*
X456184Y727268D01*
X456275Y727308D01*
X456365Y727352D01*
X456453Y727399D01*
X456539Y727449D01*
X456623Y727503D01*
X456705Y727560D01*
X456784Y727620D01*
X456862Y727684D01*
X456936Y727750D01*
X457008Y727819D01*
X457077Y727891D01*
X457143Y727965D01*
X457207Y728043D01*
X457267Y728122D01*
X457324Y728204D01*
X457378Y728288D01*
X457428Y728374D01*
X457475Y728462D01*
X457519Y728552D01*
X457559Y728643D01*
X457595Y728736D01*
X457628Y728830D01*
X457657Y728926D01*
X457682Y729022D01*
X457703Y729119D01*
X457721Y729218D01*
X457734Y729316D01*
X457744Y729416D01*
X457750Y729515D01*
X457752Y729615D01*
X457752Y730885D01*
X457750Y730985D01*
X457744Y731084D01*
X457734Y731184D01*
X457721Y731282D01*
X457703Y731381D01*
X457682Y731478D01*
X457657Y731574D01*
X457628Y731670D01*
X457595Y731764D01*
X457559Y731857D01*
X457519Y731948D01*
X457475Y732038D01*
X457428Y732126D01*
X457378Y732212D01*
X457324Y732296D01*
X457267Y732378D01*
X457207Y732457D01*
X457143Y732535D01*
X457077Y732609D01*
X457008Y732681D01*
X456936Y732750D01*
X456862Y732816D01*
X456784Y732880D01*
X456705Y732940D01*
X456623Y732997D01*
X456539Y733051D01*
X456453Y733101D01*
X456365Y733148D01*
X456275Y733192D01*
X456184Y733232D01*
X456091Y733268D01*
X455997Y733301D01*
X455901Y733330D01*
X455805Y733355D01*
X455708Y733376D01*
X455609Y733394D01*
X455511Y733407D01*
X455411Y733417D01*
X455312Y733423D01*
X455212Y733425D01*
X451402Y733425D01*
X451402Y738505D01*
X457752Y738505D01*
D17*
X505968Y711200D03*
X433832Y711200D03*
D10*
X290830Y613410D02*
X290828Y613510D01*
X290822Y613609D01*
X290812Y613709D01*
X290799Y613807D01*
X290781Y613906D01*
X290760Y614003D01*
X290735Y614099D01*
X290706Y614195D01*
X290673Y614289D01*
X290637Y614382D01*
X290597Y614473D01*
X290553Y614563D01*
X290506Y614651D01*
X290456Y614737D01*
X290402Y614821D01*
X290345Y614903D01*
X290285Y614982D01*
X290221Y615060D01*
X290155Y615134D01*
X290086Y615206D01*
X290014Y615275D01*
X289940Y615341D01*
X289862Y615405D01*
X289783Y615465D01*
X289701Y615522D01*
X289617Y615576D01*
X289531Y615626D01*
X289443Y615673D01*
X289353Y615717D01*
X289262Y615757D01*
X289169Y615793D01*
X289075Y615826D01*
X288979Y615855D01*
X288883Y615880D01*
X288786Y615901D01*
X288687Y615919D01*
X288589Y615932D01*
X288489Y615942D01*
X288390Y615948D01*
X288290Y615950D01*
X270510Y615950D02*
X270410Y615948D01*
X270311Y615942D01*
X270211Y615932D01*
X270113Y615919D01*
X270014Y615901D01*
X269917Y615880D01*
X269821Y615855D01*
X269725Y615826D01*
X269631Y615793D01*
X269538Y615757D01*
X269447Y615717D01*
X269357Y615673D01*
X269269Y615626D01*
X269183Y615576D01*
X269099Y615522D01*
X269017Y615465D01*
X268938Y615405D01*
X268860Y615341D01*
X268786Y615275D01*
X268714Y615206D01*
X268645Y615134D01*
X268579Y615060D01*
X268515Y614982D01*
X268455Y614903D01*
X268398Y614821D01*
X268344Y614737D01*
X268294Y614651D01*
X268247Y614563D01*
X268203Y614473D01*
X268163Y614382D01*
X268127Y614289D01*
X268094Y614195D01*
X268065Y614099D01*
X268040Y614003D01*
X268019Y613906D01*
X268001Y613807D01*
X267988Y613709D01*
X267978Y613609D01*
X267972Y613510D01*
X267970Y613410D01*
X267970Y554990D02*
X267972Y554890D01*
X267978Y554791D01*
X267988Y554691D01*
X268001Y554593D01*
X268019Y554494D01*
X268040Y554397D01*
X268065Y554301D01*
X268094Y554205D01*
X268127Y554111D01*
X268163Y554018D01*
X268203Y553927D01*
X268247Y553837D01*
X268294Y553749D01*
X268344Y553663D01*
X268398Y553579D01*
X268455Y553497D01*
X268515Y553418D01*
X268579Y553340D01*
X268645Y553266D01*
X268714Y553194D01*
X268786Y553125D01*
X268860Y553059D01*
X268938Y552995D01*
X269017Y552935D01*
X269099Y552878D01*
X269183Y552824D01*
X269269Y552774D01*
X269357Y552727D01*
X269447Y552683D01*
X269538Y552643D01*
X269631Y552607D01*
X269725Y552574D01*
X269821Y552545D01*
X269917Y552520D01*
X270014Y552499D01*
X270113Y552481D01*
X270211Y552468D01*
X270311Y552458D01*
X270410Y552452D01*
X270510Y552450D01*
X288290Y552450D02*
X288390Y552452D01*
X288489Y552458D01*
X288589Y552468D01*
X288687Y552481D01*
X288786Y552499D01*
X288883Y552520D01*
X288979Y552545D01*
X289075Y552574D01*
X289169Y552607D01*
X289262Y552643D01*
X289353Y552683D01*
X289443Y552727D01*
X289531Y552774D01*
X289617Y552824D01*
X289701Y552878D01*
X289783Y552935D01*
X289862Y552995D01*
X289940Y553059D01*
X290014Y553125D01*
X290086Y553194D01*
X290155Y553266D01*
X290221Y553340D01*
X290285Y553418D01*
X290345Y553497D01*
X290402Y553579D01*
X290456Y553663D01*
X290506Y553749D01*
X290553Y553837D01*
X290597Y553927D01*
X290637Y554018D01*
X290673Y554111D01*
X290706Y554205D01*
X290735Y554301D01*
X290760Y554397D01*
X290781Y554494D01*
X290799Y554593D01*
X290812Y554691D01*
X290822Y554791D01*
X290828Y554890D01*
X290830Y554990D01*
X288290Y615950D02*
X270510Y615950D01*
X290830Y613410D02*
X290830Y609600D01*
X289560Y608330D01*
X267970Y609600D02*
X267970Y613410D01*
X267970Y609600D02*
X269240Y608330D01*
X289560Y560070D02*
X290830Y558800D01*
X289560Y560070D02*
X289560Y608330D01*
X269240Y560070D02*
X267970Y558800D01*
X269240Y560070D02*
X269240Y608330D01*
X290830Y558800D02*
X290830Y554990D01*
X267970Y554990D02*
X267970Y558800D01*
X270510Y552450D02*
X288290Y552450D01*
D11*
X295275Y596348D02*
X306705Y596348D01*
X295275Y596348D02*
X295275Y599523D01*
X295277Y599634D01*
X295283Y599744D01*
X295292Y599855D01*
X295306Y599965D01*
X295323Y600074D01*
X295344Y600183D01*
X295369Y600291D01*
X295398Y600398D01*
X295430Y600504D01*
X295466Y600609D01*
X295506Y600712D01*
X295549Y600814D01*
X295596Y600915D01*
X295647Y601014D01*
X295700Y601111D01*
X295757Y601205D01*
X295818Y601298D01*
X295881Y601389D01*
X295948Y601478D01*
X296018Y601564D01*
X296091Y601647D01*
X296166Y601729D01*
X296244Y601807D01*
X296326Y601882D01*
X296409Y601955D01*
X296495Y602025D01*
X296584Y602092D01*
X296675Y602155D01*
X296768Y602216D01*
X296863Y602273D01*
X296959Y602326D01*
X297058Y602377D01*
X297159Y602424D01*
X297261Y602467D01*
X297364Y602507D01*
X297469Y602543D01*
X297575Y602575D01*
X297682Y602604D01*
X297790Y602629D01*
X297899Y602650D01*
X298008Y602667D01*
X298118Y602681D01*
X298229Y602690D01*
X298339Y602696D01*
X298450Y602698D01*
X298561Y602696D01*
X298671Y602690D01*
X298782Y602681D01*
X298892Y602667D01*
X299001Y602650D01*
X299110Y602629D01*
X299218Y602604D01*
X299325Y602575D01*
X299431Y602543D01*
X299536Y602507D01*
X299639Y602467D01*
X299741Y602424D01*
X299842Y602377D01*
X299941Y602326D01*
X300038Y602273D01*
X300132Y602216D01*
X300225Y602155D01*
X300316Y602092D01*
X300405Y602025D01*
X300491Y601955D01*
X300574Y601882D01*
X300656Y601807D01*
X300734Y601729D01*
X300809Y601647D01*
X300882Y601564D01*
X300952Y601478D01*
X301019Y601389D01*
X301082Y601298D01*
X301143Y601205D01*
X301200Y601111D01*
X301253Y601014D01*
X301304Y600915D01*
X301351Y600814D01*
X301394Y600712D01*
X301434Y600609D01*
X301470Y600504D01*
X301502Y600398D01*
X301531Y600291D01*
X301556Y600183D01*
X301577Y600074D01*
X301594Y599965D01*
X301608Y599855D01*
X301617Y599744D01*
X301623Y599634D01*
X301625Y599523D01*
X301625Y596348D01*
X301625Y600158D02*
X306705Y602698D01*
X300355Y607695D02*
X300355Y611505D01*
X300357Y611605D01*
X300363Y611704D01*
X300373Y611804D01*
X300386Y611902D01*
X300404Y612001D01*
X300425Y612098D01*
X300450Y612194D01*
X300479Y612290D01*
X300512Y612384D01*
X300548Y612477D01*
X300588Y612568D01*
X300632Y612658D01*
X300679Y612746D01*
X300729Y612832D01*
X300783Y612916D01*
X300840Y612998D01*
X300900Y613077D01*
X300964Y613155D01*
X301030Y613229D01*
X301099Y613301D01*
X301171Y613370D01*
X301245Y613436D01*
X301323Y613500D01*
X301402Y613560D01*
X301484Y613617D01*
X301568Y613671D01*
X301654Y613721D01*
X301742Y613768D01*
X301832Y613812D01*
X301923Y613852D01*
X302016Y613888D01*
X302110Y613921D01*
X302206Y613950D01*
X302302Y613975D01*
X302399Y613996D01*
X302498Y614014D01*
X302596Y614027D01*
X302696Y614037D01*
X302795Y614043D01*
X302895Y614045D01*
X303530Y614045D01*
X303641Y614043D01*
X303751Y614037D01*
X303862Y614028D01*
X303972Y614014D01*
X304081Y613997D01*
X304190Y613976D01*
X304298Y613951D01*
X304405Y613922D01*
X304511Y613890D01*
X304616Y613854D01*
X304719Y613814D01*
X304821Y613771D01*
X304922Y613724D01*
X305021Y613673D01*
X305118Y613620D01*
X305212Y613563D01*
X305305Y613502D01*
X305396Y613439D01*
X305485Y613372D01*
X305571Y613302D01*
X305654Y613229D01*
X305736Y613154D01*
X305814Y613076D01*
X305889Y612994D01*
X305962Y612911D01*
X306032Y612825D01*
X306099Y612736D01*
X306162Y612645D01*
X306223Y612552D01*
X306280Y612457D01*
X306333Y612361D01*
X306384Y612262D01*
X306431Y612161D01*
X306474Y612059D01*
X306514Y611956D01*
X306550Y611851D01*
X306582Y611745D01*
X306611Y611638D01*
X306636Y611530D01*
X306657Y611421D01*
X306674Y611312D01*
X306688Y611202D01*
X306697Y611091D01*
X306703Y610981D01*
X306705Y610870D01*
X306703Y610759D01*
X306697Y610649D01*
X306688Y610538D01*
X306674Y610428D01*
X306657Y610319D01*
X306636Y610210D01*
X306611Y610102D01*
X306582Y609995D01*
X306550Y609889D01*
X306514Y609784D01*
X306474Y609681D01*
X306431Y609579D01*
X306384Y609478D01*
X306333Y609379D01*
X306280Y609283D01*
X306223Y609188D01*
X306162Y609095D01*
X306099Y609004D01*
X306032Y608915D01*
X305962Y608829D01*
X305889Y608746D01*
X305814Y608664D01*
X305736Y608586D01*
X305654Y608511D01*
X305571Y608438D01*
X305485Y608368D01*
X305396Y608301D01*
X305305Y608238D01*
X305212Y608177D01*
X305118Y608120D01*
X305021Y608067D01*
X304922Y608016D01*
X304821Y607969D01*
X304719Y607926D01*
X304616Y607886D01*
X304511Y607850D01*
X304405Y607818D01*
X304298Y607789D01*
X304190Y607764D01*
X304081Y607743D01*
X303972Y607726D01*
X303862Y607712D01*
X303751Y607703D01*
X303641Y607697D01*
X303530Y607695D01*
X300355Y607695D01*
X300215Y607697D01*
X300075Y607703D01*
X299935Y607712D01*
X299796Y607726D01*
X299657Y607743D01*
X299519Y607764D01*
X299381Y607789D01*
X299244Y607818D01*
X299108Y607850D01*
X298973Y607887D01*
X298839Y607927D01*
X298706Y607970D01*
X298574Y608018D01*
X298443Y608068D01*
X298314Y608123D01*
X298187Y608181D01*
X298061Y608242D01*
X297937Y608307D01*
X297815Y608376D01*
X297695Y608447D01*
X297577Y608522D01*
X297460Y608600D01*
X297346Y608682D01*
X297235Y608766D01*
X297126Y608854D01*
X297019Y608944D01*
X296914Y609038D01*
X296813Y609134D01*
X296714Y609233D01*
X296618Y609334D01*
X296524Y609439D01*
X296434Y609546D01*
X296346Y609655D01*
X296262Y609766D01*
X296180Y609880D01*
X296102Y609997D01*
X296027Y610115D01*
X295956Y610235D01*
X295887Y610357D01*
X295822Y610481D01*
X295761Y610607D01*
X295703Y610734D01*
X295648Y610863D01*
X295598Y610994D01*
X295550Y611126D01*
X295507Y611259D01*
X295467Y611393D01*
X295430Y611528D01*
X295398Y611664D01*
X295369Y611801D01*
X295344Y611939D01*
X295323Y612077D01*
X295306Y612216D01*
X295292Y612355D01*
X295283Y612495D01*
X295277Y612635D01*
X295275Y612775D01*
D18*
X279400Y548132D03*
X279400Y620268D03*
D10*
X85598Y117602D02*
X79248Y111252D01*
X85598Y117602D02*
X143002Y117602D01*
X149352Y111252D01*
X149352Y-9652D02*
X143002Y-16002D01*
X85598Y-16002D01*
X79248Y-9652D01*
X157480Y27940D02*
X157480Y73660D01*
X71120Y73660D02*
X71120Y27940D01*
X149352Y22098D02*
X149352Y-9652D01*
X149352Y79502D02*
X149352Y111252D01*
X79248Y111252D02*
X79248Y79502D01*
X79248Y22606D02*
X79248Y-9652D01*
X79248Y22606D02*
X71120Y27940D01*
X149352Y22098D02*
X157480Y27940D01*
X157480Y73660D02*
X149352Y79502D01*
X79248Y79502D02*
X71120Y73660D01*
D15*
X95123Y127889D02*
X95239Y127891D01*
X95356Y127897D01*
X95472Y127906D01*
X95587Y127919D01*
X95702Y127936D01*
X95817Y127957D01*
X95930Y127982D01*
X96043Y128010D01*
X96155Y128042D01*
X96266Y128078D01*
X96376Y128117D01*
X96484Y128160D01*
X96591Y128206D01*
X96696Y128256D01*
X96799Y128309D01*
X96901Y128365D01*
X97001Y128425D01*
X97099Y128488D01*
X97194Y128555D01*
X97288Y128624D01*
X97379Y128696D01*
X97468Y128771D01*
X97554Y128850D01*
X97637Y128931D01*
X97718Y129014D01*
X97797Y129100D01*
X97872Y129189D01*
X97944Y129280D01*
X98013Y129374D01*
X98080Y129469D01*
X98143Y129567D01*
X98203Y129667D01*
X98259Y129769D01*
X98312Y129872D01*
X98362Y129977D01*
X98408Y130084D01*
X98451Y130192D01*
X98490Y130302D01*
X98526Y130413D01*
X98558Y130525D01*
X98586Y130638D01*
X98611Y130751D01*
X98632Y130866D01*
X98649Y130981D01*
X98662Y131096D01*
X98671Y131212D01*
X98677Y131329D01*
X98679Y131445D01*
X95123Y127889D02*
X94943Y127891D01*
X94764Y127898D01*
X94584Y127908D01*
X94405Y127923D01*
X94226Y127943D01*
X94048Y127966D01*
X93871Y127994D01*
X93694Y128026D01*
X93518Y128062D01*
X93343Y128103D01*
X93169Y128148D01*
X92996Y128197D01*
X92824Y128249D01*
X92653Y128307D01*
X92484Y128368D01*
X92317Y128433D01*
X92151Y128502D01*
X91987Y128575D01*
X91824Y128652D01*
X91664Y128733D01*
X91505Y128817D01*
X91349Y128906D01*
X91195Y128998D01*
X91043Y129094D01*
X90893Y129193D01*
X90745Y129296D01*
X90601Y129403D01*
X90458Y129513D01*
X90319Y129626D01*
X90182Y129743D01*
X90048Y129862D01*
X89917Y129985D01*
X89789Y130111D01*
X90234Y140335D02*
X90236Y140451D01*
X90242Y140568D01*
X90251Y140684D01*
X90264Y140799D01*
X90281Y140914D01*
X90302Y141029D01*
X90327Y141142D01*
X90355Y141255D01*
X90387Y141367D01*
X90423Y141478D01*
X90462Y141588D01*
X90505Y141696D01*
X90551Y141803D01*
X90601Y141908D01*
X90654Y142011D01*
X90710Y142113D01*
X90770Y142213D01*
X90833Y142311D01*
X90900Y142406D01*
X90969Y142500D01*
X91041Y142591D01*
X91116Y142680D01*
X91195Y142766D01*
X91276Y142849D01*
X91359Y142930D01*
X91445Y143009D01*
X91534Y143084D01*
X91625Y143156D01*
X91719Y143225D01*
X91814Y143292D01*
X91912Y143355D01*
X92012Y143415D01*
X92114Y143471D01*
X92217Y143524D01*
X92322Y143574D01*
X92429Y143620D01*
X92537Y143663D01*
X92647Y143702D01*
X92758Y143738D01*
X92870Y143770D01*
X92983Y143798D01*
X93096Y143823D01*
X93211Y143844D01*
X93326Y143861D01*
X93441Y143874D01*
X93557Y143883D01*
X93674Y143889D01*
X93790Y143891D01*
X93790Y143892D02*
X93949Y143890D01*
X94108Y143884D01*
X94266Y143875D01*
X94425Y143862D01*
X94583Y143845D01*
X94740Y143824D01*
X94897Y143799D01*
X95054Y143771D01*
X95209Y143739D01*
X95364Y143704D01*
X95518Y143664D01*
X95671Y143621D01*
X95823Y143574D01*
X95974Y143524D01*
X96123Y143470D01*
X96272Y143413D01*
X96418Y143352D01*
X96564Y143288D01*
X96707Y143220D01*
X96849Y143149D01*
X96990Y143074D01*
X97128Y142996D01*
X97265Y142915D01*
X97399Y142831D01*
X97532Y142743D01*
X97663Y142652D01*
X97791Y142558D01*
X92011Y137223D02*
X91911Y137284D01*
X91813Y137349D01*
X91717Y137416D01*
X91624Y137487D01*
X91533Y137560D01*
X91444Y137637D01*
X91358Y137716D01*
X91274Y137798D01*
X91193Y137883D01*
X91115Y137970D01*
X91040Y138060D01*
X90967Y138152D01*
X90898Y138247D01*
X90832Y138343D01*
X90769Y138442D01*
X90709Y138543D01*
X90652Y138646D01*
X90599Y138750D01*
X90550Y138856D01*
X90503Y138964D01*
X90461Y139073D01*
X90421Y139183D01*
X90386Y139295D01*
X90354Y139408D01*
X90326Y139522D01*
X90301Y139636D01*
X90280Y139752D01*
X90263Y139868D01*
X90250Y139984D01*
X90241Y140101D01*
X90235Y140218D01*
X90233Y140335D01*
X96901Y134557D02*
X97001Y134496D01*
X97099Y134431D01*
X97195Y134364D01*
X97288Y134293D01*
X97379Y134220D01*
X97468Y134143D01*
X97554Y134064D01*
X97638Y133982D01*
X97719Y133897D01*
X97797Y133810D01*
X97872Y133720D01*
X97945Y133628D01*
X98014Y133533D01*
X98080Y133437D01*
X98143Y133338D01*
X98203Y133237D01*
X98260Y133134D01*
X98313Y133030D01*
X98362Y132924D01*
X98409Y132816D01*
X98451Y132707D01*
X98491Y132597D01*
X98526Y132485D01*
X98558Y132372D01*
X98586Y132258D01*
X98611Y132144D01*
X98632Y132028D01*
X98649Y131912D01*
X98662Y131796D01*
X98671Y131679D01*
X98677Y131562D01*
X98679Y131445D01*
X96901Y134557D02*
X92012Y137224D01*
X104899Y140335D02*
X109344Y143891D01*
X109344Y127889D01*
X104899Y127889D02*
X113789Y127889D01*
D11*
X523239Y595751D02*
X523872Y595819D01*
X524502Y595902D01*
X525130Y596001D01*
X525756Y596114D01*
X526378Y596242D01*
X526998Y596384D01*
X527614Y596542D01*
X528226Y596714D01*
X528834Y596901D01*
X529437Y597102D01*
X530035Y597317D01*
X530628Y597547D01*
X531215Y597790D01*
X531796Y598048D01*
X532371Y598319D01*
X532940Y598604D01*
X533501Y598903D01*
X534055Y599215D01*
X534602Y599540D01*
X535140Y599877D01*
X535670Y600228D01*
X536192Y600591D01*
X536705Y600967D01*
X537209Y601354D01*
X523240Y595751D02*
X522591Y595697D01*
X521942Y595659D01*
X521291Y595637D01*
X520640Y595630D01*
X519989Y595639D01*
X519339Y595665D01*
X518689Y595706D01*
X518041Y595763D01*
X517394Y595836D01*
X516749Y595924D01*
X516106Y596029D01*
X515466Y596149D01*
X514830Y596284D01*
X514196Y596435D01*
X513567Y596602D01*
X512942Y596783D01*
X512321Y596980D01*
X511706Y597192D01*
X511096Y597419D01*
X510491Y597661D01*
X509893Y597918D01*
X509301Y598189D01*
X508716Y598474D01*
X508138Y598774D01*
X507568Y599087D01*
X507005Y599415D01*
X506451Y599756D01*
X505905Y600110D01*
X505368Y600478D01*
X504839Y600859D01*
X504321Y601252D01*
X503812Y601658D01*
X503313Y602076D01*
X502825Y602507D01*
X502347Y602949D01*
X501880Y603403D01*
X501425Y603868D01*
X500981Y604344D01*
X500548Y604830D01*
X500128Y605327D01*
X499720Y605834D01*
X499324Y606351D01*
X498941Y606878D01*
X498571Y607414D01*
X498214Y607958D01*
X497871Y608511D01*
X497541Y609072D01*
X497225Y609642D01*
X496923Y610218D01*
X496636Y610802D01*
X496362Y611393D01*
X496103Y611990D01*
X495859Y612594D01*
X495629Y613203D01*
X495415Y613817D01*
X495215Y614437D01*
X495215Y630163D02*
X495414Y630778D01*
X495626Y631389D01*
X495854Y631994D01*
X496096Y632593D01*
X496353Y633186D01*
X496624Y633773D01*
X496909Y634353D01*
X497208Y634926D01*
X497521Y635492D01*
X497848Y636050D01*
X498188Y636600D01*
X498541Y637141D01*
X498907Y637674D01*
X499286Y638197D01*
X499678Y638712D01*
X500081Y639216D01*
X500498Y639711D01*
X500925Y640196D01*
X501365Y640670D01*
X501816Y641133D01*
X502278Y641585D01*
X502751Y642026D01*
X503234Y642455D01*
X503728Y642872D01*
X504231Y643278D01*
X504744Y643671D01*
X505267Y644051D01*
X505799Y644419D01*
X506339Y644773D01*
X506888Y645115D01*
X507445Y645443D01*
X508010Y645757D01*
X508582Y646058D01*
X509161Y646345D01*
X509748Y646617D01*
X510340Y646876D01*
X510939Y647119D01*
X511543Y647349D01*
X512153Y647563D01*
X512768Y647763D01*
X513387Y647948D01*
X514011Y648118D01*
X514639Y648272D01*
X515270Y648411D01*
X515904Y648535D01*
X516542Y648644D01*
X517181Y648737D01*
X517823Y648814D01*
X518466Y648876D01*
X519111Y648923D01*
X519757Y648953D01*
X520403Y648968D01*
X521049Y648968D01*
X521696Y648951D01*
X522341Y648919D01*
X522986Y648872D01*
X523629Y648809D01*
X524271Y648730D01*
X524910Y648636D01*
X525547Y648526D01*
X526182Y648401D01*
X526813Y648260D01*
X527440Y648104D01*
X528063Y647933D01*
X528682Y647747D01*
X529297Y647546D01*
X529906Y647331D01*
X530510Y647100D01*
X531108Y646855D01*
X531700Y646596D01*
X532286Y646322D01*
X532865Y646034D01*
X533436Y645732D01*
X534001Y645417D01*
X534557Y645088D01*
X535105Y644745D01*
X535645Y644389D01*
X536176Y644021D01*
X536698Y643639D01*
X537210Y643245D01*
X537210Y601355D01*
X523240Y599763D02*
X523240Y595751D01*
X523240Y619437D02*
X523240Y625163D01*
X523240Y644837D02*
X523240Y648849D01*
X513715Y657860D02*
X502285Y657860D01*
X502285Y654685D02*
X502285Y661035D01*
X513715Y665353D02*
X513715Y668528D01*
X513713Y668639D01*
X513707Y668749D01*
X513698Y668860D01*
X513684Y668970D01*
X513667Y669079D01*
X513646Y669188D01*
X513621Y669296D01*
X513592Y669403D01*
X513560Y669509D01*
X513524Y669614D01*
X513484Y669717D01*
X513441Y669819D01*
X513394Y669920D01*
X513343Y670019D01*
X513290Y670116D01*
X513233Y670210D01*
X513172Y670303D01*
X513109Y670394D01*
X513042Y670483D01*
X512972Y670569D01*
X512899Y670652D01*
X512824Y670734D01*
X512746Y670812D01*
X512664Y670887D01*
X512581Y670960D01*
X512495Y671030D01*
X512406Y671097D01*
X512315Y671160D01*
X512222Y671221D01*
X512128Y671278D01*
X512031Y671331D01*
X511932Y671382D01*
X511831Y671429D01*
X511729Y671472D01*
X511626Y671512D01*
X511521Y671548D01*
X511415Y671580D01*
X511308Y671609D01*
X511200Y671634D01*
X511091Y671655D01*
X510982Y671672D01*
X510872Y671686D01*
X510761Y671695D01*
X510651Y671701D01*
X510540Y671703D01*
X510429Y671701D01*
X510319Y671695D01*
X510208Y671686D01*
X510098Y671672D01*
X509989Y671655D01*
X509880Y671634D01*
X509772Y671609D01*
X509665Y671580D01*
X509559Y671548D01*
X509454Y671512D01*
X509351Y671472D01*
X509249Y671429D01*
X509148Y671382D01*
X509049Y671331D01*
X508953Y671278D01*
X508858Y671221D01*
X508765Y671160D01*
X508674Y671097D01*
X508585Y671030D01*
X508499Y670960D01*
X508416Y670887D01*
X508334Y670812D01*
X508256Y670734D01*
X508181Y670652D01*
X508108Y670569D01*
X508038Y670483D01*
X507971Y670394D01*
X507908Y670303D01*
X507847Y670210D01*
X507790Y670116D01*
X507737Y670019D01*
X507686Y669920D01*
X507639Y669819D01*
X507596Y669717D01*
X507556Y669614D01*
X507520Y669509D01*
X507488Y669403D01*
X507459Y669296D01*
X507434Y669188D01*
X507413Y669079D01*
X507396Y668970D01*
X507382Y668860D01*
X507373Y668749D01*
X507367Y668639D01*
X507365Y668528D01*
X502285Y669163D02*
X502285Y665353D01*
X502285Y669163D02*
X502287Y669263D01*
X502293Y669362D01*
X502303Y669462D01*
X502316Y669560D01*
X502334Y669659D01*
X502355Y669756D01*
X502380Y669852D01*
X502409Y669948D01*
X502442Y670042D01*
X502478Y670135D01*
X502518Y670226D01*
X502562Y670316D01*
X502609Y670404D01*
X502659Y670490D01*
X502713Y670574D01*
X502770Y670656D01*
X502830Y670735D01*
X502894Y670813D01*
X502960Y670887D01*
X503029Y670959D01*
X503101Y671028D01*
X503175Y671094D01*
X503253Y671158D01*
X503332Y671218D01*
X503414Y671275D01*
X503498Y671329D01*
X503584Y671379D01*
X503672Y671426D01*
X503762Y671470D01*
X503853Y671510D01*
X503946Y671546D01*
X504040Y671579D01*
X504136Y671608D01*
X504232Y671633D01*
X504329Y671654D01*
X504428Y671672D01*
X504526Y671685D01*
X504626Y671695D01*
X504725Y671701D01*
X504825Y671703D01*
X504925Y671701D01*
X505024Y671695D01*
X505124Y671685D01*
X505222Y671672D01*
X505321Y671654D01*
X505418Y671633D01*
X505514Y671608D01*
X505610Y671579D01*
X505704Y671546D01*
X505797Y671510D01*
X505888Y671470D01*
X505978Y671426D01*
X506066Y671379D01*
X506152Y671329D01*
X506236Y671275D01*
X506318Y671218D01*
X506397Y671158D01*
X506475Y671094D01*
X506549Y671028D01*
X506621Y670959D01*
X506690Y670887D01*
X506756Y670813D01*
X506820Y670735D01*
X506880Y670656D01*
X506937Y670574D01*
X506991Y670490D01*
X507041Y670404D01*
X507088Y670316D01*
X507132Y670226D01*
X507172Y670135D01*
X507208Y670042D01*
X507241Y669948D01*
X507270Y669852D01*
X507295Y669756D01*
X507316Y669659D01*
X507334Y669560D01*
X507347Y669462D01*
X507357Y669362D01*
X507363Y669263D01*
X507365Y669163D01*
X507365Y666623D01*
X891539Y379851D02*
X892172Y379919D01*
X892802Y380002D01*
X893430Y380101D01*
X894056Y380214D01*
X894678Y380342D01*
X895298Y380484D01*
X895914Y380642D01*
X896526Y380814D01*
X897134Y381001D01*
X897737Y381202D01*
X898335Y381417D01*
X898928Y381647D01*
X899515Y381890D01*
X900096Y382148D01*
X900671Y382419D01*
X901240Y382704D01*
X901801Y383003D01*
X902355Y383315D01*
X902902Y383640D01*
X903440Y383977D01*
X903970Y384328D01*
X904492Y384691D01*
X905005Y385067D01*
X905509Y385454D01*
X891540Y379851D02*
X890891Y379797D01*
X890242Y379759D01*
X889591Y379737D01*
X888940Y379730D01*
X888289Y379739D01*
X887639Y379765D01*
X886989Y379806D01*
X886341Y379863D01*
X885694Y379936D01*
X885049Y380024D01*
X884406Y380129D01*
X883766Y380249D01*
X883130Y380384D01*
X882496Y380535D01*
X881867Y380702D01*
X881242Y380883D01*
X880621Y381080D01*
X880006Y381292D01*
X879396Y381519D01*
X878791Y381761D01*
X878193Y382018D01*
X877601Y382289D01*
X877016Y382574D01*
X876438Y382874D01*
X875868Y383187D01*
X875305Y383515D01*
X874751Y383856D01*
X874205Y384210D01*
X873668Y384578D01*
X873139Y384959D01*
X872621Y385352D01*
X872112Y385758D01*
X871613Y386176D01*
X871125Y386607D01*
X870647Y387049D01*
X870180Y387503D01*
X869725Y387968D01*
X869281Y388444D01*
X868848Y388930D01*
X868428Y389427D01*
X868020Y389934D01*
X867624Y390451D01*
X867241Y390978D01*
X866871Y391514D01*
X866514Y392058D01*
X866171Y392611D01*
X865841Y393172D01*
X865525Y393742D01*
X865223Y394318D01*
X864936Y394902D01*
X864662Y395493D01*
X864403Y396090D01*
X864159Y396694D01*
X863929Y397303D01*
X863715Y397917D01*
X863515Y398537D01*
X863515Y414263D02*
X863714Y414878D01*
X863926Y415489D01*
X864154Y416094D01*
X864396Y416693D01*
X864653Y417286D01*
X864924Y417873D01*
X865209Y418453D01*
X865508Y419026D01*
X865821Y419592D01*
X866148Y420150D01*
X866488Y420700D01*
X866841Y421241D01*
X867207Y421774D01*
X867586Y422297D01*
X867978Y422812D01*
X868381Y423316D01*
X868798Y423811D01*
X869225Y424296D01*
X869665Y424770D01*
X870116Y425233D01*
X870578Y425685D01*
X871051Y426126D01*
X871534Y426555D01*
X872028Y426972D01*
X872531Y427378D01*
X873044Y427771D01*
X873567Y428151D01*
X874099Y428519D01*
X874639Y428873D01*
X875188Y429215D01*
X875745Y429543D01*
X876310Y429857D01*
X876882Y430158D01*
X877461Y430445D01*
X878048Y430717D01*
X878640Y430976D01*
X879239Y431219D01*
X879843Y431449D01*
X880453Y431663D01*
X881068Y431863D01*
X881687Y432048D01*
X882311Y432218D01*
X882939Y432372D01*
X883570Y432511D01*
X884204Y432635D01*
X884842Y432744D01*
X885481Y432837D01*
X886123Y432914D01*
X886766Y432976D01*
X887411Y433023D01*
X888057Y433053D01*
X888703Y433068D01*
X889349Y433068D01*
X889996Y433051D01*
X890641Y433019D01*
X891286Y432972D01*
X891929Y432909D01*
X892571Y432830D01*
X893210Y432736D01*
X893847Y432626D01*
X894482Y432501D01*
X895113Y432360D01*
X895740Y432204D01*
X896363Y432033D01*
X896982Y431847D01*
X897597Y431646D01*
X898206Y431431D01*
X898810Y431200D01*
X899408Y430955D01*
X900000Y430696D01*
X900586Y430422D01*
X901165Y430134D01*
X901736Y429832D01*
X902301Y429517D01*
X902857Y429188D01*
X903405Y428845D01*
X903945Y428489D01*
X904476Y428121D01*
X904998Y427739D01*
X905510Y427345D01*
X905510Y385455D01*
X891540Y383863D02*
X891540Y379851D01*
X891540Y403537D02*
X891540Y409263D01*
X891540Y428937D02*
X891540Y432949D01*
X882015Y441960D02*
X870585Y441960D01*
X870585Y438785D02*
X870585Y445135D01*
X870585Y451993D02*
X879475Y449453D01*
X879475Y455803D01*
X876935Y453898D02*
X882015Y453898D01*
X-503546Y516891D02*
X-503933Y517395D01*
X-504309Y517908D01*
X-504672Y518430D01*
X-505023Y518960D01*
X-505360Y519498D01*
X-505685Y520045D01*
X-505997Y520599D01*
X-506296Y521160D01*
X-506581Y521729D01*
X-506852Y522304D01*
X-507110Y522885D01*
X-507353Y523472D01*
X-507583Y524065D01*
X-507798Y524663D01*
X-507999Y525266D01*
X-508186Y525874D01*
X-508358Y526486D01*
X-508516Y527102D01*
X-508658Y527722D01*
X-508786Y528344D01*
X-508899Y528970D01*
X-508998Y529598D01*
X-509081Y530228D01*
X-509149Y530861D01*
X-509149Y530860D02*
X-509203Y531509D01*
X-509241Y532158D01*
X-509263Y532809D01*
X-509270Y533460D01*
X-509261Y534111D01*
X-509235Y534761D01*
X-509194Y535411D01*
X-509137Y536059D01*
X-509064Y536706D01*
X-508976Y537351D01*
X-508871Y537994D01*
X-508751Y538634D01*
X-508616Y539270D01*
X-508465Y539904D01*
X-508298Y540533D01*
X-508117Y541158D01*
X-507920Y541779D01*
X-507708Y542394D01*
X-507481Y543004D01*
X-507239Y543609D01*
X-506982Y544207D01*
X-506711Y544799D01*
X-506426Y545384D01*
X-506126Y545962D01*
X-505813Y546532D01*
X-505485Y547095D01*
X-505144Y547649D01*
X-504790Y548195D01*
X-504422Y548732D01*
X-504041Y549261D01*
X-503648Y549779D01*
X-503242Y550288D01*
X-502824Y550787D01*
X-502393Y551275D01*
X-501951Y551753D01*
X-501497Y552220D01*
X-501032Y552675D01*
X-500556Y553119D01*
X-500070Y553552D01*
X-499573Y553972D01*
X-499066Y554380D01*
X-498549Y554776D01*
X-498022Y555159D01*
X-497486Y555529D01*
X-496942Y555886D01*
X-496389Y556229D01*
X-495828Y556559D01*
X-495258Y556875D01*
X-494682Y557177D01*
X-494098Y557464D01*
X-493507Y557738D01*
X-492910Y557997D01*
X-492306Y558241D01*
X-491697Y558471D01*
X-491083Y558685D01*
X-490463Y558885D01*
X-474737Y558885D02*
X-474122Y558686D01*
X-473511Y558474D01*
X-472906Y558246D01*
X-472307Y558004D01*
X-471714Y557747D01*
X-471127Y557476D01*
X-470547Y557191D01*
X-469974Y556892D01*
X-469408Y556579D01*
X-468850Y556252D01*
X-468300Y555912D01*
X-467759Y555559D01*
X-467226Y555193D01*
X-466703Y554814D01*
X-466188Y554422D01*
X-465684Y554019D01*
X-465189Y553602D01*
X-464704Y553175D01*
X-464230Y552735D01*
X-463767Y552284D01*
X-463315Y551822D01*
X-462874Y551349D01*
X-462445Y550866D01*
X-462028Y550372D01*
X-461622Y549869D01*
X-461229Y549356D01*
X-460849Y548833D01*
X-460481Y548301D01*
X-460127Y547761D01*
X-459785Y547212D01*
X-459457Y546655D01*
X-459143Y546090D01*
X-458842Y545518D01*
X-458555Y544939D01*
X-458283Y544352D01*
X-458024Y543760D01*
X-457781Y543161D01*
X-457551Y542557D01*
X-457337Y541947D01*
X-457137Y541332D01*
X-456952Y540713D01*
X-456782Y540089D01*
X-456628Y539461D01*
X-456489Y538830D01*
X-456365Y538196D01*
X-456256Y537558D01*
X-456163Y536919D01*
X-456086Y536277D01*
X-456024Y535634D01*
X-455977Y534989D01*
X-455947Y534343D01*
X-455932Y533697D01*
X-455932Y533051D01*
X-455949Y532404D01*
X-455981Y531759D01*
X-456028Y531114D01*
X-456091Y530471D01*
X-456170Y529829D01*
X-456264Y529190D01*
X-456374Y528553D01*
X-456499Y527918D01*
X-456640Y527287D01*
X-456796Y526660D01*
X-456967Y526037D01*
X-457153Y525418D01*
X-457354Y524803D01*
X-457569Y524194D01*
X-457800Y523590D01*
X-458045Y522992D01*
X-458304Y522400D01*
X-458578Y521814D01*
X-458866Y521235D01*
X-459168Y520664D01*
X-459483Y520099D01*
X-459812Y519543D01*
X-460155Y518995D01*
X-460511Y518455D01*
X-460879Y517924D01*
X-461261Y517402D01*
X-461655Y516890D01*
X-503545Y516890D01*
X-505137Y530860D02*
X-509149Y530860D01*
X-485463Y530860D02*
X-479737Y530860D01*
X-460063Y530860D02*
X-456051Y530860D01*
X-447040Y540385D02*
X-447040Y551815D01*
X-450215Y551815D02*
X-443865Y551815D01*
X-439547Y540385D02*
X-435737Y540385D01*
X-435637Y540387D01*
X-435538Y540393D01*
X-435438Y540403D01*
X-435340Y540416D01*
X-435241Y540434D01*
X-435144Y540455D01*
X-435048Y540480D01*
X-434952Y540509D01*
X-434858Y540542D01*
X-434765Y540578D01*
X-434674Y540618D01*
X-434584Y540662D01*
X-434496Y540709D01*
X-434410Y540759D01*
X-434326Y540813D01*
X-434244Y540870D01*
X-434165Y540930D01*
X-434087Y540994D01*
X-434013Y541060D01*
X-433941Y541129D01*
X-433872Y541201D01*
X-433806Y541275D01*
X-433742Y541353D01*
X-433682Y541432D01*
X-433625Y541514D01*
X-433571Y541598D01*
X-433521Y541684D01*
X-433474Y541772D01*
X-433430Y541862D01*
X-433390Y541953D01*
X-433354Y542046D01*
X-433321Y542140D01*
X-433292Y542236D01*
X-433267Y542332D01*
X-433246Y542429D01*
X-433228Y542528D01*
X-433215Y542626D01*
X-433205Y542726D01*
X-433199Y542825D01*
X-433197Y542925D01*
X-433197Y544195D01*
X-433199Y544295D01*
X-433205Y544394D01*
X-433215Y544494D01*
X-433228Y544592D01*
X-433246Y544691D01*
X-433267Y544788D01*
X-433292Y544884D01*
X-433321Y544980D01*
X-433354Y545074D01*
X-433390Y545167D01*
X-433430Y545258D01*
X-433474Y545348D01*
X-433521Y545436D01*
X-433571Y545522D01*
X-433625Y545606D01*
X-433682Y545688D01*
X-433742Y545767D01*
X-433806Y545845D01*
X-433872Y545919D01*
X-433941Y545991D01*
X-434013Y546060D01*
X-434087Y546126D01*
X-434165Y546190D01*
X-434244Y546250D01*
X-434326Y546307D01*
X-434410Y546361D01*
X-434496Y546411D01*
X-434584Y546458D01*
X-434674Y546502D01*
X-434765Y546542D01*
X-434858Y546578D01*
X-434952Y546611D01*
X-435048Y546640D01*
X-435144Y546665D01*
X-435241Y546686D01*
X-435340Y546704D01*
X-435438Y546717D01*
X-435538Y546727D01*
X-435637Y546733D01*
X-435737Y546735D01*
X-439547Y546735D01*
X-439547Y551815D01*
X-433197Y551815D01*
X739139Y417951D02*
X739772Y418019D01*
X740402Y418102D01*
X741030Y418201D01*
X741656Y418314D01*
X742278Y418442D01*
X742898Y418584D01*
X743514Y418742D01*
X744126Y418914D01*
X744734Y419101D01*
X745337Y419302D01*
X745935Y419517D01*
X746528Y419747D01*
X747115Y419990D01*
X747696Y420248D01*
X748271Y420519D01*
X748840Y420804D01*
X749401Y421103D01*
X749955Y421415D01*
X750502Y421740D01*
X751040Y422077D01*
X751570Y422428D01*
X752092Y422791D01*
X752605Y423167D01*
X753109Y423554D01*
X739140Y417951D02*
X738491Y417897D01*
X737842Y417859D01*
X737191Y417837D01*
X736540Y417830D01*
X735889Y417839D01*
X735239Y417865D01*
X734589Y417906D01*
X733941Y417963D01*
X733294Y418036D01*
X732649Y418124D01*
X732006Y418229D01*
X731366Y418349D01*
X730730Y418484D01*
X730096Y418635D01*
X729467Y418802D01*
X728842Y418983D01*
X728221Y419180D01*
X727606Y419392D01*
X726996Y419619D01*
X726391Y419861D01*
X725793Y420118D01*
X725201Y420389D01*
X724616Y420674D01*
X724038Y420974D01*
X723468Y421287D01*
X722905Y421615D01*
X722351Y421956D01*
X721805Y422310D01*
X721268Y422678D01*
X720739Y423059D01*
X720221Y423452D01*
X719712Y423858D01*
X719213Y424276D01*
X718725Y424707D01*
X718247Y425149D01*
X717780Y425603D01*
X717325Y426068D01*
X716881Y426544D01*
X716448Y427030D01*
X716028Y427527D01*
X715620Y428034D01*
X715224Y428551D01*
X714841Y429078D01*
X714471Y429614D01*
X714114Y430158D01*
X713771Y430711D01*
X713441Y431272D01*
X713125Y431842D01*
X712823Y432418D01*
X712536Y433002D01*
X712262Y433593D01*
X712003Y434190D01*
X711759Y434794D01*
X711529Y435403D01*
X711315Y436017D01*
X711115Y436637D01*
X711115Y452363D02*
X711314Y452978D01*
X711526Y453589D01*
X711754Y454194D01*
X711996Y454793D01*
X712253Y455386D01*
X712524Y455973D01*
X712809Y456553D01*
X713108Y457126D01*
X713421Y457692D01*
X713748Y458250D01*
X714088Y458800D01*
X714441Y459341D01*
X714807Y459874D01*
X715186Y460397D01*
X715578Y460912D01*
X715981Y461416D01*
X716398Y461911D01*
X716825Y462396D01*
X717265Y462870D01*
X717716Y463333D01*
X718178Y463785D01*
X718651Y464226D01*
X719134Y464655D01*
X719628Y465072D01*
X720131Y465478D01*
X720644Y465871D01*
X721167Y466251D01*
X721699Y466619D01*
X722239Y466973D01*
X722788Y467315D01*
X723345Y467643D01*
X723910Y467957D01*
X724482Y468258D01*
X725061Y468545D01*
X725648Y468817D01*
X726240Y469076D01*
X726839Y469319D01*
X727443Y469549D01*
X728053Y469763D01*
X728668Y469963D01*
X729287Y470148D01*
X729911Y470318D01*
X730539Y470472D01*
X731170Y470611D01*
X731804Y470735D01*
X732442Y470844D01*
X733081Y470937D01*
X733723Y471014D01*
X734366Y471076D01*
X735011Y471123D01*
X735657Y471153D01*
X736303Y471168D01*
X736949Y471168D01*
X737596Y471151D01*
X738241Y471119D01*
X738886Y471072D01*
X739529Y471009D01*
X740171Y470930D01*
X740810Y470836D01*
X741447Y470726D01*
X742082Y470601D01*
X742713Y470460D01*
X743340Y470304D01*
X743963Y470133D01*
X744582Y469947D01*
X745197Y469746D01*
X745806Y469531D01*
X746410Y469300D01*
X747008Y469055D01*
X747600Y468796D01*
X748186Y468522D01*
X748765Y468234D01*
X749336Y467932D01*
X749901Y467617D01*
X750457Y467288D01*
X751005Y466945D01*
X751545Y466589D01*
X752076Y466221D01*
X752598Y465839D01*
X753110Y465445D01*
X753110Y423555D01*
X739140Y421963D02*
X739140Y417951D01*
X739140Y441637D02*
X739140Y447363D01*
X739140Y467037D02*
X739140Y471049D01*
X729615Y480060D02*
X718185Y480060D01*
X718185Y476885D02*
X718185Y483235D01*
X723265Y487553D02*
X723265Y491363D01*
X723267Y491463D01*
X723273Y491562D01*
X723283Y491662D01*
X723296Y491760D01*
X723314Y491859D01*
X723335Y491956D01*
X723360Y492052D01*
X723389Y492148D01*
X723422Y492242D01*
X723458Y492335D01*
X723498Y492426D01*
X723542Y492516D01*
X723589Y492604D01*
X723639Y492690D01*
X723693Y492774D01*
X723750Y492856D01*
X723810Y492935D01*
X723874Y493013D01*
X723940Y493087D01*
X724009Y493159D01*
X724081Y493228D01*
X724155Y493294D01*
X724233Y493358D01*
X724312Y493418D01*
X724394Y493475D01*
X724478Y493529D01*
X724564Y493579D01*
X724652Y493626D01*
X724742Y493670D01*
X724833Y493710D01*
X724926Y493746D01*
X725020Y493779D01*
X725116Y493808D01*
X725212Y493833D01*
X725309Y493854D01*
X725408Y493872D01*
X725506Y493885D01*
X725606Y493895D01*
X725705Y493901D01*
X725805Y493903D01*
X726440Y493903D01*
X726551Y493901D01*
X726661Y493895D01*
X726772Y493886D01*
X726882Y493872D01*
X726991Y493855D01*
X727100Y493834D01*
X727208Y493809D01*
X727315Y493780D01*
X727421Y493748D01*
X727526Y493712D01*
X727629Y493672D01*
X727731Y493629D01*
X727832Y493582D01*
X727931Y493531D01*
X728028Y493478D01*
X728122Y493421D01*
X728215Y493360D01*
X728306Y493297D01*
X728395Y493230D01*
X728481Y493160D01*
X728564Y493087D01*
X728646Y493012D01*
X728724Y492934D01*
X728799Y492852D01*
X728872Y492769D01*
X728942Y492683D01*
X729009Y492594D01*
X729072Y492503D01*
X729133Y492410D01*
X729190Y492315D01*
X729243Y492219D01*
X729294Y492120D01*
X729341Y492019D01*
X729384Y491917D01*
X729424Y491814D01*
X729460Y491709D01*
X729492Y491603D01*
X729521Y491496D01*
X729546Y491388D01*
X729567Y491279D01*
X729584Y491170D01*
X729598Y491060D01*
X729607Y490949D01*
X729613Y490839D01*
X729615Y490728D01*
X729613Y490617D01*
X729607Y490507D01*
X729598Y490396D01*
X729584Y490286D01*
X729567Y490177D01*
X729546Y490068D01*
X729521Y489960D01*
X729492Y489853D01*
X729460Y489747D01*
X729424Y489642D01*
X729384Y489539D01*
X729341Y489437D01*
X729294Y489336D01*
X729243Y489237D01*
X729190Y489140D01*
X729133Y489046D01*
X729072Y488953D01*
X729009Y488862D01*
X728942Y488773D01*
X728872Y488687D01*
X728799Y488604D01*
X728724Y488522D01*
X728646Y488444D01*
X728564Y488369D01*
X728481Y488296D01*
X728395Y488226D01*
X728306Y488159D01*
X728215Y488096D01*
X728122Y488035D01*
X728028Y487978D01*
X727931Y487925D01*
X727832Y487874D01*
X727731Y487827D01*
X727629Y487784D01*
X727526Y487744D01*
X727421Y487708D01*
X727315Y487676D01*
X727208Y487647D01*
X727100Y487622D01*
X726991Y487601D01*
X726882Y487584D01*
X726772Y487570D01*
X726661Y487561D01*
X726551Y487555D01*
X726440Y487553D01*
X723265Y487553D01*
X723125Y487555D01*
X722985Y487561D01*
X722845Y487570D01*
X722706Y487584D01*
X722567Y487601D01*
X722429Y487622D01*
X722291Y487647D01*
X722154Y487676D01*
X722018Y487708D01*
X721883Y487745D01*
X721749Y487785D01*
X721616Y487828D01*
X721484Y487876D01*
X721353Y487926D01*
X721224Y487981D01*
X721097Y488039D01*
X720971Y488100D01*
X720847Y488165D01*
X720725Y488234D01*
X720605Y488305D01*
X720487Y488380D01*
X720370Y488458D01*
X720256Y488540D01*
X720145Y488624D01*
X720036Y488712D01*
X719929Y488802D01*
X719824Y488896D01*
X719723Y488992D01*
X719624Y489091D01*
X719528Y489192D01*
X719434Y489297D01*
X719344Y489404D01*
X719256Y489513D01*
X719172Y489624D01*
X719090Y489738D01*
X719012Y489855D01*
X718937Y489973D01*
X718866Y490093D01*
X718797Y490215D01*
X718732Y490339D01*
X718671Y490465D01*
X718613Y490592D01*
X718558Y490721D01*
X718508Y490852D01*
X718460Y490984D01*
X718417Y491117D01*
X718377Y491251D01*
X718340Y491386D01*
X718308Y491522D01*
X718279Y491659D01*
X718254Y491797D01*
X718233Y491935D01*
X718216Y492074D01*
X718202Y492213D01*
X718193Y492353D01*
X718187Y492493D01*
X718185Y492633D01*
M02*
